<?xml version="1.0" encoding="UTF-8"?>
<!-- Created with Inkscape (http://www.inkscape.org/) -->
<svg width="128" height="102.67" version="1.1" viewBox="0 0 128 102.67" xml:space="preserve" xmlns="http://www.w3.org/2000/svg"><defs><clipPath id="clipPath854"><path d="m0 76.765h95.896v-76.705h-95.896z"/></clipPath><clipPath id="clipPath868"><path d="m0 76.765h95.896v-76.705h-95.896z"/></clipPath><clipPath id="clipPath882"><path d="m0 76.765h95.896v-76.705h-95.896z"/></clipPath><clipPath id="clipPath902"><path d="m0 76.765h95.896v-76.705h-95.896z"/></clipPath></defs><g transform="matrix(1.3333 0 0 -1.3333 0 102.67)"><g fill="#231f20"><path d="m6.368 20.873c0 2.996 2.026 4.762 4.692 4.762 1.012 0 1.601-0.166 2.121-0.317l0.451 0.397h0.205l0.096-2.996h-0.288c-0.683 1.834-1.654 2.353-2.668 2.353-1.586 0-3.131-1.189-3.131-4.062 0-2.244 1.121-4.281 3.447-4.281 0.671 0 1.395 0.191 1.395 0.408 0 0.467 0.014 1.711-0.027 2.765l-0.055 0.055-1.34 0.068v0.463h3.831v-0.463l-0.987-0.068-0.054-0.055c-0.028-0.875-0.041-1.861-0.028-2.914-0.164-0.342-1.476-0.875-2.858-0.875-2.79 0-4.802 1.737-4.802 4.76"/><path d="m21.457 27.207c0 0.438 0.274 0.779 0.739 0.779 0.438 0 0.711-0.287 0.711-0.724 0-0.44-0.287-0.78-0.752-0.78-0.424 0-0.698 0.288-0.698 0.725zm-2.56 0c0 0.438 0.275 0.779 0.741 0.779 0.437 0 0.711-0.287 0.711-0.724 0-0.44-0.288-0.78-0.753-0.78-0.424 0-0.699 0.288-0.699 0.725zm4.844-6.334c0 2.764-1.081 4.145-2.818 4.145s-2.845-1.381-2.845-4.145 1.081-4.144 2.817-4.144c1.739 0 2.846 1.38 2.846 4.144zm-7.14-0.137c0 3.106 1.902 4.899 4.322 4.899 2.722 0 4.297-1.918 4.297-4.625 0-3.106-1.903-4.897-4.325-4.897-2.721 0-4.294 1.914-4.294 4.623"/><path d="m28.063 16.715 1.465 0.066 0.055 0.057c0.014 0.506 0.041 2.269 0.041 4.117 0 1.846 0 3.365-0.041 3.844l-0.042 0.068h-1.628c-0.287 0-0.629-0.492-1.189-2.148h-0.274l0.11 2.996h0.246l0.396-0.231h6.144l0.395 0.231h0.247l0.109-2.996h-0.274c-0.574 1.67-0.902 2.148-1.189 2.148h-1.629l-0.04-0.068c-0.015-0.328-0.041-2.176-0.041-4.022 0-1.847 0.026-3.447 0.041-3.939l0.054-0.057 1.505-0.066v-0.467h-4.461v0.467"/><path d="m35.738 16.715 1.341 0.066 0.055 0.057c0.013 0.627 0.041 2.269 0.041 4.117 0 1.846-0.028 3.393-0.041 3.94l-0.055 0.054-1.341 0.069v0.466h6.006l0.534 0.231h0.205l0.096-2.996h-0.273c-0.493 1.383-0.932 2.066-1.162 2.08l-2.586 0.137-0.042-0.069c-0.013-0.629-0.04-2.08-0.04-3.611 0.615 0 1.955 0.041 2.31 0.068l0.056 0.055 0.491 0.957h0.26c-0.013-0.383-0.026-0.971-0.026-1.34 0-0.355 0.013-1.121 0.026-1.533h-0.26l-0.491 1.137-0.056 0.054c-0.424 0.014-1.64 0.039-2.31 0.039 0-1.736 0.027-3.13 0.04-3.828l0.042-0.068 2.79 0.148c0.232 0.016 0.847 0.576 1.34 2.19h0.315c-0.178-2.666-0.219-2.887-0.451-2.887h-6.814v0.467"/><path d="m50.91 18.875c0 1.299-0.889 1.807-2.093 1.807h-1.437c-0.013-1.739 0.027-3.119 0.042-3.844l0.067-0.057c0.261-0.013 0.508-0.013 0.672-0.013 1.847 0 2.749 0.767 2.749 2.107zm-2.668 2.408c1.614 0 2.026 0.766 2.026 1.821 0 0.724-0.26 1.271-0.822 1.558-0.355 0.192-0.862 0.301-1.615 0.301-0.068 0-0.219 0-0.354-0.014l-0.055-0.068c-0.015-0.711-0.055-2.051-0.042-3.598zm-3.598-4.568 1.341 0.066 0.054 0.057c0.015 0.478 0.042 2.269 0.042 4.117 0 1.846-0.027 3.338-0.042 3.94l-0.054 0.054-1.341 0.069v0.466c1.013 0 2.175 0.026 2.983 0.026 0.998 0 1.765-0.082 2.381-0.274 1.079-0.341 1.737-1.039 1.737-2.039 0-1.176-0.779-1.873-1.67-2.092v-0.027c1.449-0.068 2.313-0.916 2.313-2.025 0-1.86-1.67-2.832-4.324-2.832-0.889 0-2.325 0.027-3.42 0.027v0.467"/><path d="m61.442 20.873c0 2.764-1.08 4.145-2.816 4.145-1.738 0-2.846-1.381-2.846-4.145s1.08-4.144 2.819-4.144c1.736 0 2.843 1.38 2.843 4.144zm-7.14-0.137c0 3.106 1.902 4.899 4.324 4.899 2.723 0 4.295-1.918 4.295-4.625 0-3.106-1.902-4.897-4.322-4.897-2.723 0-4.297 1.914-4.297 4.623"/><path d="m70.157 23.104c0 0.751-0.328 1.312-0.943 1.599-0.342 0.164-0.768 0.26-1.629 0.26h-0.451l-0.041-0.041c-0.014-0.588-0.028-2.381-0.041-3.981 2.381 0.069 3.105 0.834 3.105 2.163zm-5.869-6.389 1.367 0.066 0.057 0.057c0.014 0.396 0.041 2.269 0.041 4.117 0 1.846-0.027 3.324-0.041 3.94l-0.057 0.054-1.367 0.069v0.466c1.233 0 2.545 0.026 3.244 0.026 1.08 0 1.709-0.069 2.215-0.219 1.314-0.396 1.889-1.244 1.889-2.176 0-1.353-0.918-1.996-2.039-2.351v-0.028c0.355-0.41 0.97-1.533 1.763-2.927 0.344-0.604 0.672-1.053 1.123-1.08l0.301-0.014v-0.467h-2.053l-0.054 0.055c-0.506 1.027-0.862 1.861-1.723 3.394-0.18 0.313-0.342 0.573-0.547 0.807-0.492-0.07-0.959-0.096-1.355-0.096-0.014-1.629 0.027-3.16 0.041-3.57l0.054-0.057 1.26-0.066v-0.467h-4.119v0.467"/><path d="m73.81 20.873c0 2.996 2.025 4.762 4.691 4.762 1.014 0 1.601-0.166 2.121-0.317l0.451 0.397h0.205l0.096-2.996h-0.287c-0.684 1.834-1.654 2.353-2.666 2.353-1.588 0-3.133-1.189-3.133-4.062 0-2.244 1.121-4.281 3.447-4.281 0.67 0 1.395 0.191 1.395 0.408 0 0.467 0.014 1.711-0.028 2.765l-0.054 0.055-1.34 0.068v0.463h3.83v-0.463l-0.986-0.068-0.053-0.055c-0.029-0.875-0.043-1.861-0.029-2.914-0.164-0.342-1.477-0.875-2.858-0.875-2.791 0-4.802 1.737-4.802 4.76"/></g><g clip-path="url(#clipPath854)" fill="#231f20"><path d="m83.974 19.135h0.316c0.477-1.737 1.256-2.461 2.215-2.461 1.121 0 1.832 0.752 1.832 1.736 0 2.381-4.199 1.779-4.199 4.787 0 1.274 1 2.438 2.736 2.438 0.889 0 1.602-0.276 1.752-0.317l0.408 0.397h0.26l0.084-2.996h-0.289c-0.574 1.67-1.326 2.353-2.256 2.353-0.807 0-1.504-0.533-1.504-1.435 0-2.285 4.268-1.93 4.268-4.817 0-1.381-1.039-2.707-3.174-2.707-0.588 0-1.285 0.135-1.889 0.533l-0.273-0.533h-0.287v3.022"/><path d="m1.382 3.42c0 0.519 0.014 0.834 0.014 2.187 0 1.082-0.014 1.944-0.028 3.174l-0.055 0.055-1.313 0.07v0.465h3.913v-0.465l-1.108-0.07-0.056-0.055c-0.013-1.025-0.025-3.24-0.025-5.306 0-1.723 0.395-2.887 2.214-2.887 1.902 0 2.449 1.109 2.449 3.146 0 1.78-0.027 3.707-0.054 5.047l-0.055 0.055-1.259 0.07v0.465h3.626v-0.465l-1.341-0.07-0.055-0.055c-0.041-1.463-0.041-3.472-0.026-5.17 0.012-2.353-1.096-3.611-3.394-3.611-2.257 0-3.447 1.162-3.447 3.42"/></g><path d="m10.875 0.602 1.341 0.068 0.054 0.055c0.041 1.464 0.041 2.545 0.041 3.912 0 1.369 0 2.121-0.041 4.144l-0.054 0.055-1.341 0.07v0.465h2.614c1.668-2.34 3.571-5.074 4.939-7.031h0.026c-0.026 2.625-0.055 5.101-0.082 6.441l-0.055 0.055-1.257 0.07v0.465h3.625v-0.465l-1.342-0.07-0.053-0.055c-0.041-1.463-0.041-2.543-0.041-5.976v-2.737h-0.672c-1.695 2.409-3.721 5.241-5.444 7.702h-0.027c0.014-3.202 0.054-5.676 0.082-7.045l0.053-0.055 1.26-0.068v-0.465h-3.626v0.465" fill="#231f20"/><g clip-path="url(#clipPath868)" fill="#231f20"><path d="m22.325 0.602 1.341 0.068 0.055 0.055c0.028 0.423 0.042 2.271 0.042 4.117 0 1.847-0.014 3.474-0.042 3.939l-0.055 0.055-1.341 0.07v0.465h4.16v-0.465l-1.328-0.07-0.055-0.055c-0.027-0.367-0.041-2.269-0.041-4.115 0-1.848 0.028-3.477 0.041-3.941l0.055-0.055 1.328-0.068v-0.465h-4.16v0.465"/><path d="m28.468 8.865-0.821 0.041v0.465h3.584v-0.465l-1.216-0.054-0.056-0.055c0.767-1.984 1.669-4.379 2.572-6.69h0.029c0.669 1.86 1.832 5.17 2.283 6.704l-0.041 0.041-1.108 0.054v0.465h3.024v-0.465l-0.794-0.041c-0.711-1.806-2.354-6.06-3.435-8.865h-0.368c-1.409 3.42-2.626 6.402-3.653 8.865"/></g><path d="m37.742 0.602 1.341 0.068 0.055 0.055c0.013 0.629 0.041 2.271 0.041 4.117 0 1.847-0.028 3.392-0.041 3.939l-0.055 0.055-1.341 0.07v0.465h6.007l0.533 0.233h0.205l0.096-2.997h-0.273c-0.494 1.383-0.93 2.067-1.163 2.081l-2.586 0.136-0.041-0.068c-0.013-0.631-0.041-2.08-0.041-3.611 0.616 0 1.956 0.041 2.311 0.068l0.056 0.053 0.491 0.959h0.262c-0.014-0.383-0.028-0.971-0.028-1.34 0-0.358 0.014-1.123 0.028-1.533h-0.262l-0.491 1.134-0.056 0.055c-0.424 0.016-1.641 0.041-2.311 0.041 0-1.738 0.028-3.133 0.041-3.83l0.041-0.068 2.791 0.15c0.233 0.014 0.847 0.574 1.34 2.189h0.315c-0.178-2.668-0.219-2.886-0.451-2.886h-6.814v0.465" fill="#231f20"/><g clip-path="url(#clipPath882)" fill="#231f20"><path d="m52.517 6.99c0 0.752-0.327 1.315-0.944 1.602-0.342 0.164-0.765 0.26-1.628 0.26h-0.452l-0.041-0.041c-0.014-0.588-0.026-2.381-0.041-3.983 2.381 0.068 3.106 0.836 3.106 2.162zm-5.869-6.388 1.369 0.068 0.054 0.055c0.014 0.396 0.041 2.271 0.041 4.117 0 1.847-0.027 3.326-0.041 3.939l-0.054 0.055-1.369 0.07v0.465c1.232 0 2.544 0.027 3.243 0.027 1.081 0 1.71-0.068 2.215-0.218 1.313-0.399 1.889-1.246 1.889-2.176 0-1.354-0.918-1.998-2.039-2.354v-0.027c0.356-0.41 0.971-1.531 1.766-2.926 0.341-0.603 0.67-1.054 1.121-1.082l0.301-0.013v-0.465h-2.051l-0.055 0.054c-0.508 1.026-0.863 1.862-1.725 3.393-0.177 0.314-0.341 0.574-0.546 0.807-0.494-0.069-0.958-0.094-1.356-0.094-0.014-1.629 0.027-3.162 0.041-3.572l0.055-0.055 1.26-0.068v-0.465h-4.119v0.465"/><path d="m56.647 3.023h0.317c0.478-1.738 1.258-2.462 2.215-2.462 1.121 0 1.834 0.751 1.834 1.738 0 2.379-4.202 1.777-4.202 4.787 0 1.271 1.001 2.435 2.737 2.435 0.89 0 1.601-0.273 1.752-0.314l0.41 0.397h0.26l0.082-2.997h-0.287c-0.575 1.668-1.327 2.354-2.258 2.354-0.807 0-1.504-0.533-1.504-1.436 0-2.285 4.268-1.929 4.268-4.816 0-1.381-1.04-2.709-3.174-2.709-0.588 0-1.285 0.137-1.887 0.533l-0.275-0.533h-0.288v3.023"/></g><g fill="#231f20"><path d="m64.255 0.602 1.34 0.068 0.054 0.055c0.028 0.423 0.041 2.271 0.041 4.117 0 1.847-0.013 3.474-0.041 3.939l-0.054 0.055-1.34 0.07v0.465h4.158v-0.465l-1.326-0.07-0.057-0.055c-0.025-0.367-0.039-2.269-0.039-4.115 0-1.848 0.028-3.477 0.039-3.941l0.057-0.055 1.326-0.068v-0.465h-4.158v0.465"/><path d="m71.669 0.602 1.463 0.068 0.056 0.055c0.012 0.505 0.039 2.271 0.039 4.117 0 1.847 0 3.367-0.039 3.846l-0.041 0.068h-1.628c-0.288 0-0.631-0.494-1.19-2.149h-0.273l0.107 2.997h0.248l0.397-0.233h6.142l0.395 0.233h0.248l0.109-2.997h-0.273c-0.575 1.668-0.903 2.149-1.192 2.149h-1.627l-0.041-0.068c-0.013-0.331-0.041-2.176-0.041-4.022 0-1.848 0.028-3.449 0.041-3.941l0.055-0.055 1.504-0.068v-0.465h-4.459v0.465"/><path d="m79.343 0.602 1.342 0.068 0.054 0.055c0.014 0.629 0.041 2.271 0.041 4.117 0 1.847-0.027 3.392-0.041 3.939l-0.054 0.055-1.342 0.07v0.465h6.006l0.533 0.233h0.205l0.096-2.997h-0.274c-0.492 1.383-0.93 2.067-1.162 2.081l-2.586 0.136-0.041-0.068c-0.014-0.631-0.041-2.08-0.041-3.611 0.615 0 1.957 0.041 2.313 0.068l0.054 0.053 0.492 0.959h0.26c-0.013-0.383-0.027-0.971-0.027-1.34 0-0.358 0.014-1.123 0.027-1.533h-0.26l-0.492 1.134-0.054 0.055c-0.424 0.016-1.641 0.041-2.313 0.041 0-1.738 0.027-3.133 0.041-3.83l0.041-0.068 2.791 0.15c0.233 0.014 0.848 0.574 1.342 2.189h0.312c-0.175-2.668-0.218-2.886-0.449-2.886h-6.814v0.465"/><path d="m89.862 0.602 1.465 0.068 0.055 0.055c0.014 0.505 0.041 2.271 0.041 4.117 0 1.847 0 3.367-0.041 3.846l-0.041 0.068h-1.629c-0.287 0-0.629-0.494-1.19-2.149h-0.273l0.109 2.997h0.246l0.397-0.233h6.143l0.396 0.233h0.246l0.11-2.997h-0.274c-0.574 1.668-0.902 2.149-1.189 2.149h-1.629l-0.041-0.068c-0.012-0.331-0.041-2.176-0.041-4.022 0-1.848 0.029-3.449 0.041-3.941l0.056-0.055 1.504-0.068v-0.465h-4.461v0.465"/></g><g clip-path="url(#clipPath902)" fill="#235099"><path d="m47.595 41.208c-7.961 0.172-14.297 6.791-14.126 14.752 0.084 3.857 1.665 7.451 4.45 10.119 2.787 2.668 6.445 4.091 10.301 4.007 7.963-0.171 14.299-6.79 14.127-14.752-0.084-3.856-1.664-7.451-4.451-10.119-2.786-2.667-6.444-4.091-10.301-4.007zm-10.498 25.729c-3.015-2.888-4.726-6.776-4.816-10.951-0.186-8.616 6.673-15.779 15.288-15.967 4.174-0.09 8.133 1.45 11.149 4.337 3.015 2.889 4.726 6.778 4.818 10.953 0.186 8.617-6.674 15.779-15.29 15.965-4.173 0.091-8.132-1.449-11.149-4.337"/><path d="m47.472 35.49c-11.116 0.24-19.961 9.479-19.72 20.594 0.116 5.384 2.322 10.4 6.212 14.124 3.889 3.726 8.998 5.712 14.381 5.596 5.383-0.117 10.4-2.323 14.125-6.213 3.724-3.889 5.711-8.996 5.595-14.38-0.242-11.115-9.48-19.961-20.593-19.721zm-14.168 35.409c-4.075-3.901-6.385-9.155-6.508-14.794-0.252-11.643 9.013-21.318 20.654-21.571 11.641-0.252 21.319 9.015 21.569 20.656 0.123 5.639-1.957 10.988-5.858 15.063-3.904 4.074-9.156 6.384-14.795 6.507-5.639 0.122-10.989-1.959-15.062-5.861"/></g><g fill="#235099"><path d="m52.11 43.09c-7.84-1.406-14.123 1.644-15.272 5.408-0.743 2.435 0.337 2.963 0.509 4.721-1.357-0.723-1.608 1.159-0.409 1.321 1.268 0.17 1.836-1.162 1.219-2.935-0.886-2.546 0.671-3.729 1.11-3.597 0.018 0.133 0.177 0.458 0.254 0.601-1.067 1.364-0.622 3.352 1.199 3.515 0.742 0.066 0.668-0.474 0.153-0.549-1.396-0.202-1.33-1.761-0.749-1.959 0.102 0 0.221 0.027 0.324 0.131-0.024 0.317 0.196 0.769 0.558 0.679 0.804-0.202 0.497-1.227-0.056-1.311-0.207-0.631-0.603-1.51-0.517-1.966 0.084-0.455 0.404-0.545 0.666-0.282 0.195 0.194 0.288 0.664 0.413 1.174-0.133 0.575 0.147 1.012 0.635 0.805 0.338-0.144 0.375-0.663 0.043-1.066-0.043-0.494-0.259-1.055-0.212-1.434 0.048-0.38 0.566-0.354 0.753-0.148 0.186 0.205 0.379 1.546 0.454 1.84-0.289 0.257-0.174 1.048 0.422 1.095 0.702 0.056 0.539-0.899 0.34-1.14 0.198-0.746-0.122-1.586 0.021-1.919 0.142-0.334 0.689-0.413 0.936-0.141 0.247 0.274-0.064 0.849 0.074 1.521-0.237 0.579 0.039 1.044 0.384 1.071 0.783 0.063 0.56-0.642 0.416-1.138 0.039-0.507 0.126-1.113 0.302-1.581 0.113-0.303 0.616-0.372 0.782 0.018 0.106 0.243-0.133 0.935-0.189 1.423-0.34 0.79-0.053 1.005 0.252 1.03 0.287 0.024 0.679-0.138 0.628-0.918 0.158-0.526 0.294-1.16 0.489-1.574 0.088-0.33 0.491-0.364 0.619-0.021 0.125 0.341-0.111 0.745-0.363 1.296-0.563 0.545-0.052 0.966 0.269 0.992 0.319 0.026 0.819-0.061 0.714-0.911 0.173-0.516 0.287-0.987 0.402-1.261 0.133-0.315 0.572-0.353 0.759-0.146 0.19 0.208-0.172 0.572-0.265 1.019-0.424 0.412-0.346 0.975 0.136 1.013 0.248 0.02 0.731-8e-3 0.686-0.73 0.143-0.313 0.145-0.711 0.352-1.051 0.253-0.414 0.644-0.257 0.8 0.115 0.155 0.375-0.816 1.46-0.058 1.521 0.76 0.059 0.892-0.936 1.138-1.175 0.246-0.237 0.436-0.079 0.551 0.051 0.199 0.219-0.33 0.816 0.039 0.985 0.746 0.342 0.733-0.509 1.26-0.518 2.309-0.036 4.127 3.753 3.857 4.823-0.773 0.458-0.501 1.602 0.145 1.614 1.592 0.029 1.367-2.219 0.16-4.829-1.582-3.422-5.472-5.183-7.133-5.482"/><path d="m54.165 61.729c-0.256-0.247-1.066-0.299-1.48-0.057-0.344 0.202-0.422 1.708-0.25 2.116 0.173 0.407 1.943 0.423 2.084 0.144 0.14-0.28-0.098-1.956-0.354-2.203zm-3.172 1.863c0.057-0.215 0.268-1.165 0.317-1.736 0.027-0.213-0.049-0.472-0.176-0.521-0.319-0.121-0.848-0.092-1.135 0.018-0.316 0.121-0.103 1.379-1.262 1.604 0.16 0.112 0.244 0.229 0.276 0.505 0.021 0.181 0.244 0.376 0.517 0.409 0.53 0.06 0.861 0.076 1.039 0.069 0.177-6e-3 0.368-0.128 0.424-0.348zm-2.242-6.243c-0.676 0.015-0.929 4.237-0.23 4.223 0.626-0.013 0.697-4.232 0.23-4.223zm6.721 3.75c-0.026 0.01-0.032 0.054-0.026 0.074 0.356 1.369 0.615 1.971 0.744 3.336 0.032 0.326-0.201 0.59-0.418 0.644-0.843 0.211-1.232 0.203-1.558 0.228-0.035 3e-3 -0.113 0.018-0.137 0.065-0.098 0.198-0.242 0.794-0.244 1.096 0.494 1.045-0.387 1.406-1.215 1.393-0.545 0.026-1.099-0.225-1.164-0.633-0.076-0.79 0.799-1.079 1.111-1.107 0.053-0.112 0.18-0.664 0.202-0.883 2e-3 -0.029-0.024-0.061-0.063-0.061-1.4-0.026-3.216-0.271-4.137-0.341-0.132-0.021-0.195 0.055-0.222 0.132-0.171 0.472-0.901 2.701 0.468 2.657 0.813-0.026 1.493 0.639 0.721 1.145-0.197 0.131-1.236 0.258-1.797 0.161-0.467-0.081-0.691-0.607-0.634-1.066 0.093-0.72-1.702-0.794-2.232-0.58-0.378 0.154-0.844 0.605-1.007 0.895-0.344 0.616-0.941 0.146-0.832-0.184 0.743-2.24 3.115-1.884 3.735-1.916 0.031-2e-3 0.084-0.042 0.087-0.059 0.151-0.809 0.633-1.663 0.632-1.978-0.296-0.328-0.17-1.03 0.247-1.151-0.509-0.488-0.737-2.194-0.655-3.609 0.104-1.803 0.831-3.552 1.978-3.363 1.458 0.238 0.883 3.61 1.238 3.898 0.177 0.143 0.65 0.102 0.824 0.082 0.039-5e-3 0.061-0.05 0.059-0.072-0.117-1.323-0.43-3.445-0.507-4.011-0.08-0.577-0.127-0.875 0.165-1.408 0.32-0.587 0.906-2.453 0.221-4.427-0.021-0.077-0.085-0.102-0.108-0.108-0.618-0.141-0.947-0.334-1.172-0.487-0.244-0.166-0.505-0.511-0.328-0.719 0.26-0.237 1.924-0.145 2.438 0.624 0.011 0.019 0.047 0.092 0.052 0.108 0.178 0.495 0.401 0.857 0.569 1.175 0.767 1.465 0.879 3.265-0.174 4.078-0.295 0.227-0.598 0.444-0.309 1.014 0.557 1.103 0.616 2.307 0.686 3.324 0.027 0.41 0.709 0.644 0.965 0.258 0.638-1.511 0.137-2.813 0.127-3.349-0.012-0.538 0.191-0.786 0.259-1.108 0.436-1.97 0.217-3.564-0.177-5.596-2e-3 -0.044-0.035-0.074-0.076-0.087-0.461-0.155-0.745-0.251-1.034-0.453-0.293-0.205-0.408-0.467-0.281-0.61 0.387-0.436 2.137 0.037 2.268 0.538 0.328 1.246 2.685 4.134 1.045 5.978-0.748 0.842-0.748 0.504-0.756 0.929-4e-3 0.204 0.469 1.321 0.588 2.185 0.125 0.9-0.465 1.756-0.319 2.253 6e-3 0.015 0.043 0.039 0.059 0.036 0.244-0.047 0.82-0.201 1.193-0.414 0.115-0.064 0.315-0.013 0.344 0.433 0.031 0.485-1.197 0.953-1.443 1.041"/><path d="m40.673 54.929c-0.238 0.133-0.053 0.612 0.293 0.664 0.243 0.038 1.065 0.137 1.351 0.012 0.221-0.096 0.377-0.559 0.252-0.696-0.236-0.261-1.554-0.17-1.896 0.02zm-2.75 1.522c-0.023 0.285 0.363 0.607 0.658 0.545 0.236-0.05 0.969-0.823 1.002-1.004 0.062-0.332-0.203-0.595-0.425-0.611-0.345-0.025-1.208 0.759-1.235 1.07zm0.146 1.555c-0.168-0.2-0.545-0.326-0.726-0.181-0.274 0.218-0.356 1.111-0.179 1.49 0.12 0.256 0.741 0.397 0.857 0.105 0.08-0.2 0.172-1.267 0.048-1.414zm0.211 2.533c-0.301-0.151-0.58 0.054-0.611 0.425s0.845 1.279 1.16 1.192c0.155-0.042 0.387-0.336 0.361-0.598-0.016-0.183-0.733-0.932-0.91-1.019zm4.737-3.231c-0.315 0.136-1.129 1.209-0.839 1.5 0.272 0.273 1.416 0.853 1.6 0.681 0.71-0.661-0.146-2.45-0.761-2.181zm-3.332 0.216c0 0.207 1.072 0.935 1.493 0.777 0.339-0.126 0.872-1.462 0.583-1.597-0.778-0.367-2.076 0.479-2.076 0.82zm0.266 3.261c0.153 0.032 0.866-1.074 0.736-1.483-0.111-0.346-1.426-0.835-1.557-0.704-0.401 0.401-0.051 2.004 0.821 2.187zm3.234-0.291c0-0.342-1.19-0.911-1.428-0.772-0.348 0.205-1.057 1.257-0.908 1.44 0.511 0.636 2.336-0.133 2.336-0.668zm-1.022 2.331c0.074-0.16 0.163-0.375-4e-3 -0.56-0.14-0.154-1.402-0.197-1.592-0.184-0.398 0.026-0.584 0.433-0.452 0.638 0.239 0.372 1.909 0.405 2.048 0.106zm2.776-1.615c-0.042-0.221-0.405-0.306-0.563-0.288-0.193 0.022-1.018 0.667-1.07 0.893-0.07 0.295 0.13 0.484 0.319 0.532 0.513 0.128 1.374-0.82 1.314-1.137zm0.706-2.984c-0.187-0.125-0.541-0.146-0.691 0.079-0.102 0.155-0.135 1.3-0.066 1.47 0.07 0.177 0.455 0.308 0.672 0.187 0.25-0.136 0.389-1.534 0.085-1.736zm-1.222-1.144c0.193 0.018 0.558-0.026 0.664-0.292 0.115-0.289-0.684-1.193-1.054-1.299-0.226-0.065-0.565 0.276-0.503 0.613 0.041 0.218 0.735 0.964 0.893 0.978zm2.127 2.562c-0.132 1.597-1.621 3.707-3.797 4.068-2.362 0.392-6.034-0.554-6.432-4.026-0.411-3.592 2.34-6.261 5.641-6.008 3.582 0.274 4.774 3.706 4.588 5.966"/><path d="m41.384 73.581-0.103-0.806-0.521-0.623 0.805-0.103 0.623-0.522 0.102 0.806 0.521 0.623-0.804 0.103-0.623 0.522"/><path d="m56.452 38.685-0.654 0.48-0.811 0.049 0.477 0.657 0.051 0.812 0.654-0.482 0.81-0.05-0.478-0.655-0.049-0.811"/><path d="m39.304 38.715 0.656 0.478 0.811 0.046-0.475 0.659-0.049 0.811-0.656-0.479-0.81-0.047 0.476-0.657 0.047-0.811"/><path d="m34.82 42.201 0.826 0.968c0.376 0.441 0.976 0.41 1.548-0.079 0.576-0.491 0.705-1.081 0.33-1.522l-0.826-0.969c-0.101-0.119-0.105-0.185 0.03-0.301l-0.295-0.222-0.797 0.679 0.177 0.324c0.135-0.116 0.201-0.101 0.301 0.017l0.83 0.973c0.164 0.193 0.149 0.429-0.108 0.648-0.265 0.226-0.503 0.207-0.668 0.013l-0.829-0.972c-0.102-0.118-0.106-0.185 0.026-0.298l-0.292-0.226-0.728 0.622 0.174 0.326c0.134-0.115 0.201-0.1 0.301 0.019"/><path d="m32.167 45.429 1.746 1.309 0.328-0.439-0.547-1.847c-0.037-0.128-0.136-0.33-0.136-0.33s0.158 0.146 0.236 0.205l0.769 0.577c0.122 0.091 0.147 0.154 0.039 0.296l0.334 0.156 0.528-0.702-0.241-0.281c-0.107 0.143-0.177 0.141-0.298 0.049l-1.283-0.961c-0.125-0.093-0.145-0.158-0.038-0.3l-0.336-0.153-0.473 0.631 0.495 1.68c0.041 0.131 0.144 0.336 0.144 0.336s-0.162-0.149-0.251-0.216l-0.656-0.492c-0.124-0.093-0.143-0.157-0.036-0.3l-0.334-0.155-0.529 0.705 0.242 0.277c0.107-0.142 0.172-0.139 0.297-0.045"/><path d="m32.839 48.776 0.453-0.918-0.289-0.228c-0.079 0.159-0.149 0.17-0.284 0.103l-1.438-0.712c-0.139-0.069-0.17-0.128-0.091-0.289l-0.357-0.091-0.453 0.918 0.289 0.228c0.079-0.16 0.144-0.172 0.284-0.103l1.438 0.712c0.135 0.066 0.169 0.128 0.09 0.288l0.358 0.092"/><path d="m29.579 51.522 2.362-0.213 0.208-0.705-1.871-1.449c-0.136-0.104-0.152-0.16-0.105-0.318l-0.369-0.026-0.289 0.979 0.324 0.179c0.045-0.14 0.102-0.16 0.221-0.074l0.904 0.68c0.15 0.105 0.469 0.255 0.469 0.255s-0.352-0.039-0.536-0.029l-1.137 0.111c-0.152 0.01-0.184-0.055-0.142-0.2l-0.367-0.029-0.257 0.87 0.325 0.176c0.047-0.163 0.088-0.192 0.26-0.207"/><path d="m31.326 55.221 0.193-2.116-0.352-0.112c-0.016 0.177-0.078 0.212-0.229 0.198l-1.595-0.146c-0.157-0.014-0.205-0.058-0.19-0.236l-0.367 0.047-0.184 2.023 0.653 0.059 0.083-0.278c-0.21-0.05-0.253-0.113-0.226-0.419l0.043-0.47 0.66 0.06-0.039 0.426c-0.015 0.182-0.052 0.246-0.195 0.233l0.045 0.299 0.652 0.06 0.102-0.286c-0.147-0.014-0.172-0.083-0.154-0.265l0.039-0.426 0.717 0.066-0.059 0.652c-0.026 0.284-0.111 0.329-0.309 0.348l0.03 0.302 0.682-0.019"/><path d="m29.153 57.796-0.045-0.407 0.784-0.087 0.044 0.394c0.034 0.296-0.1 0.468-0.339 0.495-0.239 0.026-0.411-0.103-0.444-0.395zm2.467 1.136-0.09-0.81c-0.429-0.355-1.101 0.011-1.164-0.542l-0.036-0.328 0.522-0.058c0.151-0.017 0.212 0.012 0.232 0.189l0.351-0.115-0.114-1.009-0.367-0.04c0.02 0.182-0.033 0.223-0.183 0.24l-1.594 0.179c-0.151 0.017-0.213-0.017-0.233-0.194l-0.349 0.12 0.154 1.381c0.075 0.668 0.394 1.032 0.902 0.975 0.332-0.038 0.543-0.24 0.633-0.595 0.131 0.33 0.455 0.379 0.651 0.397 0.226 0.02 0.305 0.056 0.329 0.264l6e-3 0.062 0.35-0.116"/><path d="m32.188 60.695c-0.165-0.513-0.451-0.833-0.592-0.969l-0.518 0.325 0.077 0.238c0.326-2e-3 0.532 0.259 0.619 0.53 0.067 0.208 0.039 0.456-0.181 0.527-0.191 0.061-0.323-0.056-0.535-0.46-0.213-0.413-0.558-0.784-1.088-0.614-0.517 0.167-0.66 0.723-0.471 1.312 0.145 0.45 0.381 0.762 0.513 0.897l0.489-0.312-0.074-0.232c-0.286-0.03-0.455-0.266-0.524-0.478-0.075-0.233-0.022-0.433 0.152-0.488 0.169-0.055 0.294 0.069 0.45 0.369 0.289 0.548 0.601 0.906 1.182 0.72 0.568-0.184 0.687-0.788 0.501-1.365"/><path d="m33.405 63.645-0.467-0.912-0.355 0.097c0.08 0.159 0.047 0.221-0.088 0.29l-1.426 0.732c-0.138 0.071-0.205 0.06-0.286-0.099l-0.286 0.232 0.467 0.911 0.355-0.097c-0.081-0.158-0.051-0.218 0.087-0.289l1.427-0.732c0.135-0.07 0.205-0.06 0.286 0.098l0.286-0.231"/><path d="m33.532 67.421c-0.17 0.085-0.273 0.095-0.444-0.138l-0.158-0.216 1.38-1.011c0.122-0.09 0.189-0.096 0.294 0.048l0.247-0.274-0.6-0.819-0.34 0.149c0.109 0.147 0.083 0.21-0.039 0.299l-1.379 1.012-0.158-0.216c-0.172-0.234-0.131-0.329 1e-3 -0.465l-0.22-0.203-0.506 0.464 1.451 1.98 0.598-0.339-0.127-0.271"/><path d="m35.33 69.178c-0.136 0.08-0.415 0.314-0.415 0.314s0.201-0.313 0.269-0.451l0.294-0.694 0.514 0.48zm2.342-0.447-0.735-0.687-0.302 0.213c0.097 0.091 0.106 0.154-0.036 0.228l-0.2 0.101-0.715-0.669 0.085-0.207c0.063-0.153 0.136-0.134 0.24-0.037l0.191-0.316-0.635-0.592-0.301 0.212c0.117 0.109 0.134 0.168 0.067 0.326l-0.689 1.628c-0.045 0.099-0.11 0.13-0.237 0.011l-0.187 0.318 1.058 0.988 0.305-0.209c-0.131-0.122-0.113-0.179-0.012-0.229l1.586-0.806c0.145-0.077 0.205-0.069 0.326 0.043l0.191-0.316"/><path d="m39.208 69.676c-0.457-0.284-0.883-0.344-1.079-0.356l-0.184 0.584 0.212 0.131c0.248-0.213 0.574-0.147 0.817 3e-3 0.185 0.115 0.324 0.322 0.202 0.519-0.107 0.17-0.282 0.166-0.706-3e-3 -0.43-0.178-0.933-0.238-1.226 0.236-0.286 0.461-0.036 0.979 0.491 1.305 0.401 0.249 0.784 0.334 0.971 0.351l0.172-0.554-0.209-0.129c-0.236 0.162-0.519 0.092-0.707-0.026-0.209-0.129-0.298-0.315-0.201-0.47 0.093-0.151 0.267-0.138 0.582-0.011 0.576 0.231 1.045 0.302 1.367-0.216 0.314-0.507 0.014-1.045-0.502-1.364"/><path d="m46.919 73.307c-0.186-0.025-0.217-0.088-0.197-0.234l0.027-0.212c0.02-0.141 0.056-0.172 0.148-0.16l-0.025-0.349c-0.389-0.079-0.455-0.25-1.052-0.331-0.799-0.107-1.526 0.19-1.663 1.206-0.126 0.931 0.415 1.485 1.285 1.602 0.521 0.07 0.923-0.082 1.094-0.154l-0.072-0.63-0.238-0.032c-0.118 0.277-0.372 0.359-0.655 0.321-0.498-0.067-0.725-0.385-0.641-1.008 0.085-0.627 0.35-0.87 0.84-0.804 0.12 0.017 0.265 0.072 0.343 0.127l-0.046 0.336c-0.019 0.146-0.062 0.199-0.252 0.173l-0.048-7e-3 0.027 0.368 1.051 0.142 0.123-0.348-0.049-6e-3"/><path d="m49.435 74.424c-0.427 0.034-0.651-0.184-0.706-0.864-0.054-0.679 0.131-0.931 0.557-0.965 0.436-0.035 0.65 0.184 0.705 0.863 0.055 0.68-0.122 0.931-0.556 0.966zm-0.188-2.326c-0.826 0.066-1.377 0.495-1.295 1.525 0.084 1.03 0.695 1.365 1.522 1.298 0.839-0.068 1.38-0.495 1.298-1.526-0.084-1.029-0.687-1.365-1.525-1.297"/><path d="m53.782 73.279c0.02 0.189-8e-3 0.289-0.289 0.365l-0.258 0.071-0.449-1.65c-0.041-0.146-0.021-0.212 0.15-0.258l-0.167-0.329-0.981 0.268 0.02 0.369c0.175-0.048 0.224-2e-3 0.265 0.144l0.449 1.651-0.257 0.07c-0.28 0.077-0.354 5e-3 -0.434-0.168l-0.268 0.133 0.252 0.638 2.37-0.647-0.104-0.678-0.299 0.021"/><path d="m56.651 69.769-0.904 0.46 0.092 0.358c0.164-0.082 0.221-0.047 0.289 0.088l0.279 0.548-0.924 0.471-0.279-0.548c-0.07-0.135-0.062-0.203 0.096-0.284l-0.233-0.287-0.904 0.461 0.092 0.358c0.162-0.083 0.221-0.048 0.289 0.087l0.728 1.43c0.071 0.138 0.063 0.202-0.099 0.285l0.236 0.285 0.904-0.461-0.095-0.355c-0.16 0.08-0.215 0.049-0.287-0.09l-0.225-0.441 0.926-0.47 0.224 0.44c0.071 0.139 0.063 0.203-0.099 0.286l0.234 0.285 0.906-0.461-0.097-0.356c-0.158 0.081-0.215 0.05-0.285-0.089l-0.727-1.429c-0.068-0.135-0.064-0.203 0.096-0.284l-0.233-0.287"/><path d="m59.87 70.2c-0.33 0.272-0.639 0.219-1.07-0.307-0.434-0.526-0.426-0.838-0.096-1.11 0.338-0.278 0.639-0.22 1.072 0.306 0.432 0.527 0.432 0.833 0.094 1.111zm-1.482-1.803c-0.641 0.527-0.848 1.194-0.19 1.992 0.656 0.797 1.35 0.722 1.99 0.196 0.649-0.535 0.85-1.196 0.194-1.994-0.658-0.798-1.344-0.728-1.994-0.194"/><path d="m61.911 67.278 0.207-0.257c0.17-0.211 0.352-0.225 0.508-0.099 0.152 0.123 0.182 0.288 4e-3 0.507l-0.209 0.26zm-0.344-0.277-0.617-0.497 0.246-0.305c0.188-0.232 0.401-0.249 0.588-0.098 0.184 0.148 0.207 0.373 0.016 0.613zm-0.65-1.124-0.844 1.048 0.231 0.288c0.113-0.138 0.183-0.133 0.3-0.038l1.249 1.006c0.123 0.098 0.138 0.162 0.027 0.301l0.33 0.164 0.789-0.978c0.424-0.528 0.473-0.98 0.1-1.281-0.174-0.14-0.457-0.144-0.668-0.039 0.132-0.341 0.027-0.643-0.209-0.833-0.399-0.321-0.883-0.161-1.305 0.362"/><path d="m65.157 63.04-1.133-0.58c-0.517-0.263-1.058-4e-3 -1.4 0.666-0.344 0.675-0.238 1.27 0.277 1.533l1.135 0.579c0.139 0.071 0.168 0.131 0.088 0.289l0.357 0.093 0.477-0.932-0.287-0.232c-0.082 0.159-0.147 0.17-0.285 0.099l-1.141-0.581c-0.224-0.115-0.301-0.339-0.146-0.641 0.158-0.309 0.384-0.383 0.611-0.268l1.139 0.581c0.138 0.071 0.168 0.131 0.089 0.286l0.356 0.097 0.435-0.853-0.285-0.236c-0.082 0.159-0.146 0.17-0.287 0.1"/><path d="m66.163 60.452-0.103 0.396-0.762-0.201 0.099-0.384c0.079-0.288 0.264-0.4 0.497-0.339 0.232 0.062 0.345 0.244 0.269 0.528zm-1.889-1.951-0.209 0.789c0.274 0.486 1.032 0.387 0.889 0.925l-0.084 0.319-0.508-0.135c-0.146-0.038-0.193-0.087-0.146-0.259l-0.369-0.019-0.26 0.981 0.328 0.17c0.047-0.176 0.111-0.196 0.258-0.157l1.551 0.409c0.146 0.039 0.193 0.093 0.146 0.265l0.369 0.015 0.356-1.344c0.172-0.65 6e-3 -1.104-0.489-1.235-0.324-0.085-0.593 0.027-0.804 0.326-4e-3 -0.355-0.287-0.518-0.463-0.606-0.203-0.1-0.266-0.162-0.213-0.364l0.018-0.06-0.37-0.02"/><path d="m65.585 55.129c-8e-3 0.187-0.068 0.225-0.215 0.217l-0.213-0.011c-0.142-6e-3 -0.178-0.039-0.172-0.133l-0.345 0.054c-0.047 0.395-0.211 0.476-0.243 1.077-0.039 0.805 0.319 1.505 1.342 1.556 0.94 0.046 1.446-0.54 1.488-1.417 0.026-0.525-0.16-0.913-0.246-1.077l-0.621 0.125-0.011 0.24c0.285 0.094 0.388 0.34 0.375 0.625-0.026 0.503-0.323 0.756-0.95 0.725-0.632-0.031-0.896-0.276-0.873-0.77 6e-3 -0.12 0.049-0.27 0.098-0.352l0.338 0.016c0.148 8e-3 0.203 0.046 0.193 0.238l-2e-3 0.049 0.366-0.059 0.05-1.058-0.355-0.093-4e-3 0.048"/><path d="m64.099 52.037 0.322 2.1 0.367 0.025c-0.025-0.176 0.025-0.224 0.174-0.247l1.586-0.243c0.154-0.023 0.213 8e-3 0.24 0.184l0.344-0.133-0.307-2.008-0.646 0.099-0.014 0.29c0.215-1e-3 0.272 0.049 0.318 0.353l0.073 0.466-0.657 0.101-0.064-0.423c-0.027-0.181-8e-3 -0.252 0.135-0.273l-0.116-0.28-0.648 0.099-0.031 0.302c0.146-0.022 0.187 0.039 0.215 0.219l0.064 0.423-0.713 0.11-0.099-0.648c-0.043-0.282 0.029-0.346 0.216-0.411l-0.101-0.287-0.658 0.182"/><path d="m64.989 47.873-2.041 0.77 0.194 0.512 1.851 0.53c0.129 0.038 0.352 0.063 0.352 0.063s-0.207 0.054-0.299 0.089l-0.9 0.34c-0.143 0.052-0.21 0.04-0.272-0.127l-0.311 0.199 0.309 0.82 0.367-0.052c-0.064-0.166-0.023-0.225 0.117-0.278l1.502-0.566c0.145-0.055 0.209-0.036 0.272 0.131l0.31-0.203-0.279-0.737-1.682-0.485c-0.132-0.036-0.359-0.059-0.359-0.059s0.211-0.056 0.315-0.095l0.767-0.29c0.147-0.055 0.211-0.036 0.274 0.13l0.31-0.198-0.31-0.825-0.366 0.057c0.063 0.167 0.026 0.218-0.121 0.274"/><path d="m61.88 46.859c0.289 0.455 0.644 0.694 0.816 0.791l0.42-0.444-0.133-0.211c-0.316 0.083-0.58-0.118-0.732-0.359-0.117-0.185-0.152-0.431 0.045-0.555 0.168-0.108 0.324-0.027 0.633 0.311 0.308 0.347 0.734 0.621 1.205 0.324 0.459-0.291 0.461-0.865 0.129-1.389-0.252-0.399-0.559-0.642-0.721-0.74l-0.395 0.424 0.129 0.207c0.285-0.043 0.508 0.143 0.627 0.331 0.131 0.207 0.129 0.414-0.025 0.512-0.15 0.095-0.301 6e-3 -0.529-0.246-0.416-0.459-0.807-0.728-1.323-0.402-0.505 0.319-0.47 0.934-0.146 1.446"/><path d="m59.937 44.271 0.681 0.766 0.32-0.183c-0.119-0.134-0.101-0.202 0.01-0.303l1.199-1.066c0.118-0.103 0.184-0.109 0.301 0.024l0.221-0.296-0.682-0.766-0.32 0.183c0.119 0.134 0.105 0.199-0.01 0.303l-1.199 1.066c-0.113 0.1-0.184 0.109-0.301-0.024l-0.22 0.296"/><path d="m58.233 42.771c0.42 0.336 0.834 0.446 1.03 0.482l0.252-0.557-0.196-0.156c-0.271 0.182-0.588 0.078-0.808-0.101-0.172-0.136-0.285-0.358-0.139-0.539 0.125-0.156 0.299-0.131 0.699 0.087 0.406 0.228 0.899 0.348 1.246-0.086 0.34-0.424 0.153-0.968-0.33-1.355-0.369-0.295-0.738-0.425-0.924-0.465l-0.236 0.529 0.192 0.154c0.255-0.133 0.527-0.03 0.701 0.11 0.189 0.153 0.256 0.348 0.142 0.491-0.111 0.139-0.283 0.104-0.58-0.06-0.543-0.298-1.002-0.425-1.383 0.051-0.373 0.466-0.138 1.036 0.334 1.415"/><path d="m43.458 36.736-1.366 0.39 0.027 0.374 0.176-0.051c0.181-0.052 0.237-0.013 0.278 0.133l0.399 1.391c-0.098-0.051-0.262-0.073-0.54-0.026l0.115 0.403c0.298-0.011 0.478 0.021 0.785 0.298l0.558-0.158-0.606-2.112c-0.041-0.145-4e-3 -0.211 0.172-0.262l0.176-0.05-0.174-0.33"/><path d="m46.293 38.704c-0.249 0.023-0.422-0.064-0.439-0.237-0.016-0.177 0.135-0.331 0.373-0.465 0.251 0.088 0.426 0.211 0.444 0.388 0.016 0.173-0.143 0.291-0.378 0.314zm-0.107-1.14c-0.306-0.11-0.531-0.264-0.552-0.49-0.019-0.199 0.176-0.366 0.469-0.393 0.283-0.026 0.514 0.095 0.533 0.294 0.021 0.231-0.175 0.424-0.45 0.589zm-0.123-1.296c-0.753 0.071-1.204 0.418-1.161 0.875 0.037 0.395 0.372 0.587 0.738 0.705-0.297 0.171-0.545 0.382-0.516 0.697 0.038 0.404 0.507 0.637 1.208 0.571 0.669-0.063 1.105-0.381 1.067-0.785-0.03-0.316-0.309-0.477-0.632-0.589 0.335-0.184 0.629-0.436 0.591-0.83-0.043-0.457-0.562-0.712-1.295-0.644"/><path d="m49.526 38.676c-0.328-0.031-0.497-0.266-0.464-0.603 0.03-0.315 0.218-0.507 0.533-0.477 0.288 0.028 0.537 0.231 0.502 0.594-0.023 0.24-0.18 0.524-0.571 0.486zm-7e-3 -2.417c-0.183-0.017-0.53 0.012-0.65 0.086l-0.038 0.39c0.135-0.036 0.328-0.054 0.502-0.037 0.486 0.047 0.768 0.293 0.828 0.778-0.089-0.147-0.344-0.288-0.613-0.314-0.67-0.065-1.09 0.289-1.143 0.848-0.054 0.572 0.358 1.023 1.08 1.092 0.838 0.081 1.276-0.423 1.346-1.145 0.083-0.865-0.294-1.599-1.312-1.698"/><path d="m53.823 37.125-1.373-0.364-0.166 0.334 0.176 0.047c0.182 0.048 0.211 0.111 0.172 0.257l-0.369 1.4c-0.059-0.093-0.188-0.197-0.452-0.299l-0.107 0.405c0.262 0.142 0.402 0.262 0.524 0.658l0.558 0.148 0.561-2.124c0.039-0.145 0.103-0.184 0.281-0.136l0.176 0.046 0.019-0.372"/></g></g></svg>
