<?xml version="1.0" encoding="UTF-8"?><svg id="a" xmlns="http://www.w3.org/2000/svg" width="242.97" height="83.1" xmlns:xlink="http://www.w3.org/1999/xlink" viewBox="0 0 242.97 83.1"><defs><style>.c{fill:none;}.d{fill:#fff;}.e{fill:#fce34c;}.f{fill:#c33b31;}.g{fill:#d97039;}.h{fill:#295c33;}.i{fill:#285595;}.j{fill:#3d3660;}.k{clip-path:url(#b);}</style><clipPath id="b"><path class="c" d="M26.3,4.6c2.8,3.07,4.2,7.07,4.2,12V55c0,4.53-1.15,8.28-3.45,11.25-2.3,2.97-5.42,4.72-9.35,5.25-.27,0-.4,.13-.4,.4v10.2c0,.67-.33,1-1,1h-2c-.67,0-1-.33-1-1v-10.2c0-.27-.13-.4-.4-.4-3.87-.53-6.98-2.3-9.35-5.3-2.37-3-3.55-6.73-3.55-11.2V16.6C0,11.67,1.42,7.67,4.25,4.6,7.08,1.53,10.77,0,15.3,0s8.2,1.53,11,4.6Zm.3,11.7c0-3.8-1.05-6.88-3.15-9.25-2.1-2.37-4.82-3.55-8.15-3.55s-6.07,1.18-8.2,3.55c-2.13,2.37-3.2,5.45-3.2,9.25V55.3c0,3.8,1.07,6.88,3.2,9.25,2.13,2.37,4.87,3.55,8.2,3.55s6.05-1.18,8.15-3.55c2.1-2.37,3.15-5.45,3.15-9.25V16.3Z"/></clipPath></defs><path class="d" d="M26.3,4.6c2.8,3.07,4.2,7.07,4.2,12V55c0,4.53-1.15,8.28-3.45,11.25-2.3,2.97-5.42,4.72-9.35,5.25-.27,0-.4,.13-.4,.4v10.2c0,.67-.33,1-1,1h-2c-.67,0-1-.33-1-1v-10.2c0-.27-.13-.4-.4-.4-3.87-.53-6.98-2.3-9.35-5.3-2.37-3-3.55-6.73-3.55-11.2V16.6C0,11.67,1.42,7.67,4.25,4.6,7.08,1.53,10.77,0,15.3,0s8.2,1.53,11,4.6Zm.3,11.7c0-3.8-1.05-6.88-3.15-9.25-2.1-2.37-4.82-3.55-8.15-3.55s-6.07,1.18-8.2,3.55c-2.13,2.37-3.2,5.45-3.2,9.25V55.3c0,3.8,1.07,6.88,3.2,9.25,2.13,2.37,4.87,3.55,8.2,3.55s6.05-1.18,8.15-3.55c2.1-2.37,3.15-5.45,3.15-9.25V16.3Z"/><g class="k"><g><rect class="f" x="-3.47" y="-.23" width="37.97" height="14.36"/><rect class="g" x="-3.47" y="14.13" width="37.97" height="14.36"/><rect class="e" x="-3.47" y="28.49" width="37.97" height="14.36"/><rect class="h" x="-3.47" y="42.84" width="37.97" height="14.36"/><rect class="i" x="-3.47" y="57.2" width="37.97" height="14.36"/><rect class="j" x="-3.47" y="71.56" width="37.97" height="14.36"/></g></g><g><path class="d" d="M69.38,20.7h1c.67,0,1,.33,1,1v48.1c0,.67-.33,1-1,1h-1c-.67,0-1-.33-1-1v-4c0-.2-.07-.32-.2-.35-.13-.03-.23,.05-.3,.25-2.07,3.87-5.57,5.8-10.5,5.8-4,0-7.13-1.22-9.4-3.65-2.27-2.43-3.4-6.05-3.4-10.85V21.7c0-.67,.33-1,1-1h1c.67,0,1,.33,1,1V56.3c0,4.13,.88,7.23,2.65,9.3,1.77,2.07,4.28,3.1,7.55,3.1s5.85-1.2,7.75-3.6c1.9-2.4,2.85-5.7,2.85-9.9V21.7c0-.67,.33-1,1-1Z"/><path class="d" d="M111.58,46.4h-23.2c-.27,0-.4,.13-.4,.4v10.3c0,3.47,1,6.28,3,8.45,2,2.17,4.6,3.25,7.8,3.25,2.6,0,4.83-.77,6.7-2.3,1.87-1.53,3.1-3.57,3.7-6.1,.2-.6,.57-.9,1.1-.9h1c.33,0,.58,.12,.75,.35,.17,.23,.22,.52,.15,.85-.6,3.27-2.12,5.9-4.55,7.9-2.43,2-5.38,3-8.85,3-4.07,0-7.38-1.35-9.95-4.05-2.57-2.7-3.85-6.18-3.85-10.45v-22.7c0-4.2,1.28-7.67,3.85-10.4,2.57-2.73,5.88-4.1,9.95-4.1s7.38,1.37,9.95,4.1c2.57,2.73,3.85,6.2,3.85,10.4v11c0,.67-.33,1-1,1Zm-20.6-20.45c-2,2.17-3,4.98-3,8.45v9c0,.27,.13,.4,.4,.4h20.8c.27,0,.4-.13,.4-.4v-9c0-3.47-1-6.28-3-8.45-2-2.17-4.6-3.25-7.8-3.25s-5.8,1.08-7.8,3.25Z"/><path class="d" d="M150.68,46.4h-23.2c-.27,0-.4,.13-.4,.4v10.3c0,3.47,1,6.28,3,8.45,2,2.17,4.6,3.25,7.8,3.25,2.6,0,4.83-.77,6.7-2.3,1.87-1.53,3.1-3.57,3.7-6.1,.2-.6,.57-.9,1.1-.9h1c.33,0,.58,.12,.75,.35,.17,.23,.22,.52,.15,.85-.6,3.27-2.12,5.9-4.55,7.9-2.43,2-5.38,3-8.85,3-4.07,0-7.38-1.35-9.95-4.05-2.57-2.7-3.85-6.18-3.85-10.45v-22.7c0-4.2,1.28-7.67,3.85-10.4,2.57-2.73,5.88-4.1,9.95-4.1s7.38,1.37,9.95,4.1c2.57,2.73,3.85,6.2,3.85,10.4v11c0,.67-.33,1-1,1Zm-20.6-20.45c-2,2.17-3,4.98-3,8.45v9c0,.27,.13,.4,.4,.4h20.8c.27,0,.4-.13,.4-.4v-9c0-3.47-1-6.28-3-8.45-2-2.17-4.6-3.25-7.8-3.25s-5.8,1.08-7.8,3.25Z"/><path class="d" d="M182.38,21.3c.47,.27,.6,.7,.4,1.3l-.4,1.2c-.2,.67-.63,.83-1.3,.5-1.07-.47-2.23-.7-3.5-.7-2.93,.07-5.35,1.52-7.25,4.35-1.9,2.83-2.85,6.38-2.85,10.65v31.2c0,.67-.33,1-1,1h-1c-.67,0-1-.33-1-1V21.7c0-.67,.33-1,1-1h1c.67,0,1,.33,1,1v6.5c0,.2,.07,.3,.2,.3s.23-.13,.3-.4c1-2.47,2.35-4.38,4.05-5.75,1.7-1.37,3.72-2.05,6.05-2.05,1.67,0,3.1,.33,4.3,1Z"/><path class="d" d="M191.27,69.8V1.8c0-.67,.33-1,1-1h1c.67,0,1,.33,1,1V69.8c0,.67-.33,1-1,1h-1c-.67,0-1-.33-1-1Z"/><path class="d" d="M207.97,8.3c-.8-.8-1.2-1.83-1.2-3.1,0-1.2,.4-2.2,1.2-3,.8-.8,1.83-1.2,3.1-1.2,1.2,0,2.2,.4,3,1.2,.8,.8,1.2,1.8,1.2,3,0,1.27-.4,2.3-1.2,3.1s-1.8,1.2-3,1.2c-1.27,0-2.3-.4-3.1-1.2Zm1.6,61.5V21.7c0-.67,.33-1,1-1h1c.67,0,1,.33,1,1v48.1c0,.67-.33,1-1,1h-1c-.67,0-1-.33-1-1Z"/><path class="d" d="M241.97,23.3h-8.5c-.27,0-.4,.13-.4,.4V58.2c0,3.67,.62,6.22,1.85,7.65,1.23,1.43,3.18,2.15,5.85,2.15h1.1c.67,0,1,.33,1,1v.8c0,.67-.33,1-1,1h-1.5c-3.4,0-5.98-.88-7.75-2.65-1.77-1.77-2.65-5.02-2.65-9.75V23.7c0-.27-.13-.4-.4-.4h-4.1c-.67,0-1-.33-1-1v-.6c0-.67,.33-1,1-1h4.1c.27,0,.4-.13,.4-.4V9.1c0-.67,.33-1,1-1h1.1c.67,0,1,.33,1,1v11.2c0,.27,.13,.4,.4,.4h8.5c.67,0,1,.33,1,1v.6c0,.67-.33,1-1,1Z"/></g></svg>