<?xml version="1.0" encoding="UTF-8"?><svg id="Lager_1" xmlns="http://www.w3.org/2000/svg" width="680" height="250" xmlns:xlink="http://www.w3.org/1999/xlink" viewBox="0 0 680 250"><defs><style>.cls-1,.cls-2,.cls-3,.cls-4{fill:none;}.cls-2{stroke:#f3afc7;}.cls-2,.cls-3,.cls-4{stroke-miterlimit:10;stroke-width:12px;}.cls-3{stroke:#5f3b1c;}.cls-4{stroke:#7ecae4;}.cls-5{clip-path:url(#clippath);}.cls-6{fill:#fff;}.cls-7{fill:#ffe300;}.cls-8{fill:#e76a25;}.cls-9{fill:#faf8f4;}.cls-10{fill:#d32a26;}.cls-11{fill:#075e2e;}.cls-12{fill:#175499;}.cls-13{fill:#3f3464;}.cls-14{fill:#2e2014;}</style><clipPath id="clippath"><path class="cls-1" d="M79.6,13.25c8.4,9.2,12.6,21.2,12.6,36v115.2c0,13.6-3.45,24.85-10.35,33.75-6.9,8.9-16.25,14.15-28.05,15.75-.8,0-1.2,.4-1.2,1.2v30.6c0,2-1,3-3,3h-6c-2,0-3-1-3-3v-30.6c0-.8-.4-1.2-1.2-1.2-11.6-1.6-20.95-6.9-28.05-15.9-7.1-9-10.65-20.2-10.65-33.6V49.25C.7,34.45,4.95,22.45,13.45,13.25,21.95,4.06,33-.55,46.6-.55s24.6,4.6,33,13.8Zm.9,35.1c0-11.4-3.15-20.65-9.45-27.75-6.3-7.1-14.45-10.65-24.45-10.65s-18.2,3.55-24.6,10.65c-6.4,7.1-9.6,16.35-9.6,27.75v117c0,11.4,3.2,20.65,9.6,27.75,6.4,7.1,14.6,10.65,24.6,10.65s18.15-3.55,24.45-10.65c6.3-7.1,9.45-16.35,9.45-27.75V48.35Z"/></clipPath></defs><path class="cls-6" d="M79.6,13.25c8.4,9.2,12.6,21.2,12.6,36v115.2c0,13.6-3.45,24.85-10.35,33.75-6.9,8.9-16.25,14.15-28.05,15.75-.8,0-1.2,.4-1.2,1.2v30.6c0,2-1,3-3,3h-6c-2,0-3-1-3-3v-30.6c0-.8-.4-1.2-1.2-1.2-11.6-1.6-20.95-6.9-28.05-15.9-7.1-9-10.65-20.2-10.65-33.6V49.25C.7,34.45,4.95,22.45,13.45,13.25,21.95,4.06,33-.55,46.6-.55s24.6,4.6,33,13.8Zm.9,35.1c0-11.4-3.15-20.65-9.45-27.75-6.3-7.1-14.45-10.65-24.45-10.65s-18.2,3.55-24.6,10.65c-6.4,7.1-9.6,16.35-9.6,27.75v117c0,11.4,3.2,20.65,9.6,27.75,6.4,7.1,14.6,10.65,24.6,10.65s18.15-3.55,24.45-10.65c6.3-7.1,9.45-16.35,9.45-27.75V48.35Z"/><g class="cls-5"><g><rect class="cls-10" x="-9.69" y="-1.23" width="113.9" height="43.07"/><rect class="cls-8" x="-9.69" y="41.84" width="113.9" height="43.07"/><rect class="cls-7" x="-9.69" y="84.91" width="113.9" height="43.07"/><rect class="cls-11" x="-9.69" y="127.98" width="113.9" height="43.07"/><rect class="cls-12" x="-9.69" y="171.06" width="113.9" height="43.07"/><rect class="cls-13" x="-9.69" y="214.13" width="113.9" height="43.07"/></g><polyline class="cls-3" points="-15.35 28.07 63.26 106.69 -19.43 189.38"/><polyline class="cls-4" points="-32.34 28.07 46.27 106.69 -36.42 189.38"/><polyline class="cls-2" points="-48.75 28.4 29.86 107.01 -52.83 189.7"/><polyline class="cls-9" points="-55.9 28.4 22.71 107.01 -59.98 189.7"/><polygon class="cls-14" points="1.42 193.3 -7.06 184.81 71.38 106.36 -9.38 25.6 -.9 17.11 73.39 91.4 73.35 106.36 73.17 121.55 1.42 193.3"/></g><g><path class="cls-6" d="M199.83,61.55h3c2,0,3,1,3,3V208.85c0,2-1,3-3,3h-3c-2,0-3-1-3-3v-12c0-.6-.2-.95-.6-1.05-.4-.1-.7,.15-.9,.75-6.2,11.6-16.7,17.4-31.5,17.4-12,0-21.4-3.65-28.2-10.95-6.8-7.3-10.2-18.15-10.2-32.55V64.55c0-2,1-3,3-3h3c2,0,3,1,3,3v103.8c0,12.4,2.65,21.7,7.95,27.9,5.3,6.2,12.85,9.3,22.65,9.3s17.55-3.6,23.25-10.8c5.7-7.2,8.55-17.1,8.55-29.7V64.55c0-2,1-3,3-3Z"/><path class="cls-6" d="M317.42,138.65h-69.6c-.8,0-1.2,.4-1.2,1.2v30.9c0,10.4,3,18.85,9,25.35,6,6.5,13.8,9.75,23.4,9.75,7.8,0,14.5-2.3,20.1-6.9,5.6-4.6,9.3-10.7,11.1-18.3,.6-1.8,1.7-2.7,3.3-2.7h3c1,0,1.75,.35,2.25,1.05,.5,.7,.65,1.55,.45,2.55-1.8,9.8-6.35,17.7-13.65,23.7-7.3,6-16.15,9-26.55,9-12.2,0-22.15-4.05-29.85-12.15-7.7-8.1-11.55-18.55-11.55-31.35V102.65c0-12.6,3.85-23,11.55-31.2,7.7-8.2,17.65-12.3,29.85-12.3s22.15,4.1,29.85,12.3c7.7,8.2,11.55,18.6,11.55,31.2v33c0,2-1,3-3,3Zm-61.8-61.35c-6,6.5-9,14.95-9,25.35v27c0,.8,.4,1.2,1.2,1.2h62.4c.8,0,1.2-.4,1.2-1.2v-27c0-10.4-3-18.85-9-25.35-6-6.5-13.8-9.75-23.4-9.75s-17.4,3.25-23.4,9.75Z"/><path class="cls-6" d="M428.72,138.65h-69.6c-.8,0-1.2,.4-1.2,1.2v30.9c0,10.4,3,18.85,9,25.35,6,6.5,13.8,9.75,23.4,9.75,7.8,0,14.5-2.3,20.1-6.9,5.6-4.6,9.3-10.7,11.1-18.3,.6-1.8,1.7-2.7,3.3-2.7h3c1,0,1.75,.35,2.25,1.05,.5,.7,.65,1.55,.45,2.55-1.8,9.8-6.35,17.7-13.65,23.7-7.3,6-16.15,9-26.55,9-12.2,0-22.15-4.05-29.85-12.15-7.7-8.1-11.55-18.55-11.55-31.35V102.65c0-12.6,3.85-23,11.55-31.2,7.7-8.2,17.65-12.3,29.85-12.3s22.15,4.1,29.85,12.3c7.7,8.2,11.55,18.6,11.55,31.2v33c0,2-1,3-3,3Zm-61.8-61.35c-6,6.5-9,14.95-9,25.35v27c0,.8,.4,1.2,1.2,1.2h62.4c.8,0,1.2-.4,1.2-1.2v-27c0-10.4-3-18.85-9-25.35-6-6.5-13.8-9.75-23.4-9.75s-17.4,3.25-23.4,9.75Z"/><path class="cls-6" d="M514.81,63.35c1.4,.8,1.8,2.1,1.2,3.9l-1.2,3.6c-.6,2-1.9,2.5-3.9,1.5-3.2-1.4-6.7-2.1-10.5-2.1-8.8,.2-16.05,4.55-21.75,13.05-5.7,8.5-8.55,19.15-8.55,31.95v93.6c0,2-1,3-3,3h-3c-2,0-3-1-3-3V64.55c0-2,1-3,3-3h3c2,0,3,1,3,3v19.5c0,.6,.2,.9,.6,.9s.7-.4,.9-1.2c3-7.4,7.05-13.15,12.15-17.25,5.1-4.1,11.15-6.15,18.15-6.15,5,0,9.3,1,12.9,3Z"/><path class="cls-6" d="M532.5,208.85V4.85c0-2,1-3,3-3h3c2,0,3,1,3,3V208.85c0,2-1,3-3,3h-3c-2,0-3-1-3-3Z"/><path class="cls-6" d="M573.59,24.35c-2.4-2.4-3.6-5.5-3.6-9.3,0-3.6,1.2-6.6,3.6-9,2.4-2.4,5.5-3.6,9.3-3.6,3.6,0,6.6,1.2,9,3.6,2.4,2.4,3.6,5.4,3.6,9,0,3.8-1.2,6.9-3.6,9.3s-5.4,3.6-9,3.6c-3.8,0-6.9-1.2-9.3-3.6Zm4.8,184.5V64.55c0-2,1-3,3-3h3c2,0,3,1,3,3V208.85c0,2-1,3-3,3h-3c-2,0-3-1-3-3Z"/><path class="cls-6" d="M666.58,69.35h-25.5c-.8,0-1.2,.4-1.2,1.2v103.5c0,11,1.85,18.65,5.55,22.95,3.7,4.3,9.55,6.45,17.55,6.45h3.3c2,0,3,1,3,3v2.4c0,2-1,3-3,3h-4.5c-10.2,0-17.95-2.65-23.25-7.95-5.3-5.3-7.95-15.05-7.95-29.25V70.55c0-.8-.4-1.2-1.2-1.2h-12.3c-2,0-3-1-3-3v-1.8c0-2,1-3,3-3h12.3c.8,0,1.2-.4,1.2-1.2V26.75c0-2,1-3,3-3h3.3c2,0,3,1,3,3V60.35c0,.8,.4,1.2,1.2,1.2h25.5c2,0,3,1,3,3v1.8c0,2-1,3-3,3Z"/></g></svg>