<?xml version="1.0" encoding="UTF-8"?><svg id="Lager_1" xmlns="http://www.w3.org/2000/svg" width="242.19" height="86.14" xmlns:xlink="http://www.w3.org/1999/xlink" viewBox="0 0 242.19 86.14"><defs><style>.cls-1,.cls-2,.cls-3,.cls-4{fill:none;}.cls-5{clip-path:url(#clippath);}.cls-6{fill:#fff;}.cls-7{fill:#ffe300;}.cls-8{fill:#e76a25;}.cls-9{fill:#faf8f4;}.cls-10{fill:#d32a26;}.cls-11{fill:#075e2e;}.cls-12{fill:#175499;}.cls-13{fill:#3f3464;}.cls-14{fill:#2e2014;}.cls-2{stroke:#f3afc7;}.cls-2,.cls-3,.cls-4{stroke-miterlimit:10;stroke-width:4px;}.cls-3{stroke:#7ecae4;}.cls-4{stroke:#5f3b1c;}</style><clipPath id="clippath"><path class="cls-1" d="M46.53,4.83c2.8,3.07,4.2,7.07,4.2,12V55.23c0,4.53-1.15,8.28-3.45,11.25-2.3,2.97-5.42,4.72-9.35,5.25-.27,0-.4,.13-.4,.4v10.2c0,.67-.33,1-1,1h-2c-.67,0-1-.33-1-1v-10.2c0-.27-.13-.4-.4-.4-3.87-.53-6.98-2.3-9.35-5.3-2.37-3-3.55-6.73-3.55-11.2V16.83c0-4.93,1.42-8.93,4.25-12C27.31,1.76,30.99,.23,35.53,.23s8.2,1.53,11,4.6Zm.3,11.7c0-3.8-1.05-6.88-3.15-9.25-2.1-2.37-4.82-3.55-8.15-3.55s-6.07,1.18-8.2,3.55c-2.13,2.37-3.2,5.45-3.2,9.25V55.53c0,3.8,1.07,6.88,3.2,9.25,2.13,2.37,4.87,3.55,8.2,3.55s6.05-1.18,8.15-3.55c2.1-2.37,3.15-5.45,3.15-9.25V16.53Z"/></clipPath></defs><path class="cls-6" d="M46.53,4.83c2.8,3.07,4.2,7.07,4.2,12V55.23c0,4.53-1.15,8.28-3.45,11.25-2.3,2.97-5.42,4.72-9.35,5.25-.27,0-.4,.13-.4,.4v10.2c0,.67-.33,1-1,1h-2c-.67,0-1-.33-1-1v-10.2c0-.27-.13-.4-.4-.4-3.87-.53-6.98-2.3-9.35-5.3-2.37-3-3.55-6.73-3.55-11.2V16.83c0-4.93,1.42-8.93,4.25-12C27.31,1.76,30.99,.23,35.53,.23s8.2,1.53,11,4.6Zm.3,11.7c0-3.8-1.05-6.88-3.15-9.25-2.1-2.37-4.82-3.55-8.15-3.55s-6.07,1.18-8.2,3.55c-2.13,2.37-3.2,5.45-3.2,9.25V55.53c0,3.8,1.07,6.88,3.2,9.25,2.13,2.37,4.87,3.55,8.2,3.55s6.05-1.18,8.15-3.55c2.1-2.37,3.15-5.45,3.15-9.25V16.53Z"/><g class="cls-5"><g><rect class="cls-10" x="16.76" width="37.97" height="14.36"/><rect class="cls-8" x="16.76" y="14.36" width="37.97" height="14.36"/><rect class="cls-7" x="16.76" y="28.71" width="37.97" height="14.36"/><rect class="cls-11" x="16.76" y="43.07" width="37.97" height="14.36"/><rect class="cls-12" x="16.76" y="57.43" width="37.97" height="14.36"/><rect class="cls-13" x="16.76" y="71.79" width="37.97" height="14.36"/></g><polyline class="cls-4" points="14.88 9.77 41.08 35.97 13.51 63.54"/><polyline class="cls-3" points="9.21 9.77 35.41 35.97 7.85 63.54"/><polyline class="cls-2" points="3.74 9.88 29.94 36.08 2.38 63.64"/><polyline class="cls-9" points="1.36 9.88 27.56 36.08 0 63.64"/><polygon class="cls-14" points="20.47 64.84 17.64 62.02 43.79 35.87 16.87 8.94 19.69 6.12 44.45 30.88 44.44 35.87 44.38 40.93 20.47 64.84"/></g><g><path class="cls-6" d="M86.6,20.93h1c.67,0,1,.33,1,1v48.1c0,.67-.33,1-1,1h-1c-.67,0-1-.33-1-1v-4c0-.2-.07-.32-.2-.35-.13-.03-.23,.05-.3,.25-2.07,3.87-5.57,5.8-10.5,5.8-4,0-7.13-1.22-9.4-3.65-2.27-2.43-3.4-6.05-3.4-10.85V21.93c0-.67,.33-1,1-1h1c.67,0,1,.33,1,1V56.53c0,4.13,.88,7.23,2.65,9.3,1.77,2.07,4.28,3.1,7.55,3.1s5.85-1.2,7.75-3.6c1.9-2.4,2.85-5.7,2.85-9.9V21.93c0-.67,.33-1,1-1Z"/><path class="cls-6" d="M125.8,46.63h-23.2c-.27,0-.4,.13-.4,.4v10.3c0,3.47,1,6.28,3,8.45,2,2.17,4.6,3.25,7.8,3.25,2.6,0,4.83-.77,6.7-2.3,1.87-1.53,3.1-3.57,3.7-6.1,.2-.6,.57-.9,1.1-.9h1c.33,0,.58,.12,.75,.35,.17,.23,.22,.52,.15,.85-.6,3.27-2.12,5.9-4.55,7.9-2.43,2-5.38,3-8.85,3-4.07,0-7.38-1.35-9.95-4.05-2.57-2.7-3.85-6.18-3.85-10.45v-22.7c0-4.2,1.28-7.67,3.85-10.4,2.57-2.73,5.88-4.1,9.95-4.1s7.38,1.37,9.95,4.1c2.57,2.73,3.85,6.2,3.85,10.4v11c0,.67-.33,1-1,1Zm-20.6-20.45c-2,2.17-3,4.98-3,8.45v9c0,.27,.13,.4,.4,.4h20.8c.27,0,.4-.13,.4-.4v-9c0-3.47-1-6.28-3-8.45-2-2.17-4.6-3.25-7.8-3.25s-5.8,1.08-7.8,3.25Z"/><path class="cls-6" d="M161.9,46.63h-23.2c-.27,0-.4,.13-.4,.4v10.3c0,3.47,1,6.28,3,8.45,2,2.17,4.6,3.25,7.8,3.25,2.6,0,4.83-.77,6.7-2.3,1.87-1.53,3.1-3.57,3.7-6.1,.2-.6,.57-.9,1.1-.9h1c.33,0,.58,.12,.75,.35,.17,.23,.22,.52,.15,.85-.6,3.27-2.12,5.9-4.55,7.9-2.43,2-5.38,3-8.85,3-4.07,0-7.38-1.35-9.95-4.05-2.57-2.7-3.85-6.18-3.85-10.45v-22.7c0-4.2,1.28-7.67,3.85-10.4,2.57-2.73,5.88-4.1,9.95-4.1s7.38,1.37,9.95,4.1c2.57,2.73,3.85,6.2,3.85,10.4v11c0,.67-.33,1-1,1Zm-20.6-20.45c-2,2.17-3,4.98-3,8.45v9c0,.27,.13,.4,.4,.4h20.8c.27,0,.4-.13,.4-.4v-9c0-3.47-1-6.28-3-8.45-2-2.17-4.6-3.25-7.8-3.25s-5.8,1.08-7.8,3.25Z"/><path class="cls-6" d="M190.59,21.53c-6.26-3.59-.68,4.55,.4,1.3l-.4,1.2c-.2,.67-.63,.83-1.3,.5-1.07-.47-2.23-.7-3.5-.7-2.93,.07-5.35,1.52-7.25,4.35-1.9,2.83-2.85,6.38-2.85,10.65v31.2c0,.67-.33,1-1,1h-1c-.67,0-1-.33-1-1V21.93c0-.67,.33-1,1-1h1c.67,0,1,.33,1,1v6.5c0,.2,.07,.3,.2,.3s.23-.13,.3-.4c1-2.47,2.35-4.38,4.05-5.75,1.7-1.37,3.72-2.05,6.05-2.05,1.67,0,3.1,.33,4.3,1Z"/><path class="cls-6" d="M196.49,70.03V2.03c0-.67,.33-1,1-1h1c.67,0,1,.33,1,1V70.03c0,.67-.33,1-1,1h-1c-.67,0-1-.33-1-1Z"/><path class="cls-6" d="M210.19,8.53c-.8-.8-1.2-1.83-1.2-3.1,0-1.2,.4-2.2,1.2-3,.8-.8,1.83-1.2,3.1-1.2,1.2,0,2.2,.4,3,1.2,.8,.8,1.2,1.8,1.2,3,0,1.27-.4,2.3-1.2,3.1s-1.8,1.2-3,1.2c-1.27,0-2.3-.4-3.1-1.2Zm1.6,61.5V21.93c0-.67,.33-1,1-1h1c.67,0,1,.33,1,1v48.1c0,.67-.33,1-1,1h-1c-.67,0-1-.33-1-1Z"/><path class="cls-6" d="M241.19,23.53h-8.5c-.27,0-.4,.13-.4,.4V58.43c0,3.67,.62,6.22,1.85,7.65,1.23,1.43,3.18,2.15,5.85,2.15h1.1c.67,0,1,.33,1,1v.8c0,.67-.33,1-1,1h-1.5c-3.4,0-5.98-.88-7.75-2.65-1.77-1.77-2.65-5.02-2.65-9.75V23.93c0-.27-.13-.4-.4-.4h-4.1c-.67,0-1-.33-1-1v-.6c0-.67,.33-1,1-1h4.1c.27,0,.4-.13,.4-.4V9.33c0-.67,.33-1,1-1h1.1c.67,0,1,.33,1,1v11.2c0,.27,.13,.4,.4,.4h8.5c.67,0,1,.33,1,1v.6c0,.67-.33,1-1,1Z"/></g></svg>