<?xml version="1.0" encoding="UTF-8" standalone="no"?>
<svg
   xmlns:dc="http://purl.org/dc/elements/1.1/"
   xmlns:cc="http://creativecommons.org/ns#"
   xmlns:rdf="http://www.w3.org/1999/02/22-rdf-syntax-ns#"
   xmlns:svg="http://www.w3.org/2000/svg"
   xmlns="http://www.w3.org/2000/svg"
   xmlns:sodipodi="http://sodipodi.sourceforge.net/DTD/sodipodi-0.dtd"
   xmlns:inkscape="http://www.inkscape.org/namespaces/inkscape"
   width="400.20688mm"
   height="85.665627mm"
   viewBox="0 0 400.20688 85.665627"
   version="1.1"
   id="svg8"
   inkscape:version="1.0.2 (e86c8708, 2021-01-15)"
   sodipodi:docname="queerlit-rocksalt-w.svg">
  <defs
     id="defs2" />
  <sodipodi:namedview
     id="base"
     pagecolor="#ffffff"
     bordercolor="#666666"
     borderopacity="1.0"
     inkscape:pageopacity="0.0"
     inkscape:pageshadow="2"
     inkscape:zoom="0.35"
     inkscape:cx="466.46599"
     inkscape:cy="421.8778"
     inkscape:document-units="mm"
     inkscape:current-layer="layer1"
     inkscape:document-rotation="0"
     showgrid="false"
     fit-margin-top="0"
     fit-margin-left="0"
     fit-margin-right="0"
     fit-margin-bottom="0"
     inkscape:window-width="1680"
     inkscape:window-height="997"
     inkscape:window-x="0"
     inkscape:window-y="25"
     inkscape:window-maximized="1" />
  <metadata
     id="metadata5">
    <rdf:RDF>
      <cc:Work
         rdf:about="">
        <dc:format>image/svg+xml</dc:format>
        <dc:type
           rdf:resource="http://purl.org/dc/dcmitype/StillImage" />
        <dc:title></dc:title>
      </cc:Work>
    </rdf:RDF>
  </metadata>
  <g
     inkscape:label="Layer 1"
     inkscape:groupmode="layer"
     id="layer1"
     transform="translate(94.692935,-36.544831)">
    <path
       style="fill:#ffffff;stroke-width:0.264583"
       d="m -1.302678,122.059 c -0.08778,-0.0878 -1.042733,-0.25865 -2.122114,-0.3797 -1.643444,-0.1843 -2.58177,-0.52053 -5.7714696,-2.06808 -2.0949314,-1.0164 -4.2714364,-2.2366 -4.8366784,-2.71157 -0.565246,-0.47496 -1.696339,-1.18281 -2.513542,-1.573 -0.817205,-0.3902 -1.819381,-1.02319 -2.227061,-1.40666 -0.407681,-0.38347 -1.018181,-0.69722 -1.356667,-0.69722 -0.338487,0 -0.776291,-0.19383 -0.972897,-0.43072 -0.196607,-0.2369 -1.372045,-1.11468 -2.612083,-1.95063 -1.240041,-0.83595 -2.475323,-1.76647 -2.745073,-2.06782 -0.269751,-0.30136 -0.809043,-0.61789 -1.198428,-0.70342 -0.401865,-0.0883 -1.104985,-0.65631 -1.626208,-1.31381 -0.699265,-0.88209 -1.092401,-1.15445 -1.64854,-1.14208 -0.401664,0.009 -1.150614,-0.28282 -1.664337,-0.64834 -0.895088,-0.63686 -0.994252,-0.65058 -2.377988,-0.32892 -0.794173,0.18461 -1.810528,0.64412 -2.258568,1.02112 -0.44804,0.377 -1.047345,0.68545 -1.331788,0.68545 -0.284443,0 -0.587066,0.18214 -0.672492,0.40476 -0.08675,0.22606 -0.345908,0.34592 -0.587007,0.27147 -0.237429,-0.0733 -0.955622,0.2208 -1.595982,0.65358 -0.640363,0.43277 -1.41427,0.78737 -1.719792,0.78799 -0.305525,5.3e-4 -1.091279,0.35738 -1.746123,0.7928 -0.654844,0.43541 -1.933472,1.03949 -2.841397,1.3424 -0.907923,0.3029 -1.720599,0.66372 -1.805943,0.80181 -0.08535,0.13809 -1.068906,0.7109 -2.185688,1.27291 -1.116783,0.562 -2.257325,1.27318 -2.534542,1.58039 -0.277215,0.30721 -0.793038,0.55856 -1.146276,0.55856 -0.353237,0 -1.45607,0.35719 -2.450737,0.79375 -0.994667,0.43656 -2.067407,0.79375 -2.383864,0.79375 -0.31646,0 -0.878107,0.23812 -1.248106,0.52917 -0.421174,0.33129 -1.073356,0.52916 -1.744133,0.52916 -0.589275,0 -1.555485,0.22651 -2.147133,0.50336 -1.237907,0.57926 -3.089572,0.86514 -6.104861,0.94254 -1.165299,0.0299 -2.378784,0.19357 -2.696636,0.36367 -0.420776,0.2252 -1.06768,0.23848 -2.379193,0.0489 -0.990705,-0.14324 -2.350927,-0.26279 -3.022715,-0.26567 -1.18741,-0.005 -7.988472,-2.13825 -9.845455,-3.08803 -3.60419,-1.84341 -4.85595,-4.94729 -5.12788,-12.71513 l -0.14086,-4.023964 1.35479,-3.456313 c 0.74514,-1.90097 1.3548,-3.609943 1.3548,-3.797717 0,-0.187775 0.52212,-1.048372 1.16028,-1.912438 0.63816,-0.864065 1.785353,-2.702121 2.549323,-4.084568 0.76397,-1.382448 1.908717,-3.091966 2.543882,-3.798927 0.635164,-0.706964 1.154845,-1.432587 1.154845,-1.612493 0,-0.179909 0.29751,-0.673047 0.661135,-1.095864 0.363624,-0.422818 0.661281,-0.850033 0.661458,-0.949365 1.78e-4,-0.09933 0.241476,-0.257149 0.536218,-0.350695 0.318601,-0.101121 0.913019,-0.918956 1.465968,-2.016966 0.511541,-1.015783 1.445843,-2.346254 2.076227,-2.956597 0.630384,-0.610346 1.333099,-1.477576 1.56159,-1.927178 0.22849,-0.449603 1.194395,-1.734052 2.146455,-2.854332 0.952059,-1.120281 1.871234,-2.300238 2.042607,-2.622124 0.171373,-0.321887 0.857747,-1.124376 1.525278,-1.783308 2.98891,-2.950411 5.31473,-5.472027 5.31473,-5.762143 0,-0.173712 0.238125,-0.315841 0.529167,-0.315841 0.291041,0 0.532214,-0.148828 0.53594,-0.330729 0.01746,-0.85293 2.034376,-3.29564 5.417185,-6.560835 4.204718,-4.058527 5.616355,-5.243821 7.187551,-6.035094 0.799796,-0.402787 1.148419,-0.765783 1.27086,-1.323257 0.140735,-0.640758 0.334441,-0.794709 1.167567,-0.92793 0.549362,-0.08785 1.469223,-0.500465 2.044136,-0.91693 0.574913,-0.416465 1.670603,-0.964903 2.434865,-1.21875 0.764262,-0.253848 1.730484,-0.748401 2.147155,-1.099008 0.416674,-0.350607 1.010491,-0.637467 1.319596,-0.637467 0.309107,0 1.851051,-0.416719 3.426545,-0.926042 1.761331,-0.5694 3.391188,-0.926042 4.232031,-0.926042 0.752123,0 1.598795,-0.144447 1.881494,-0.320995 0.41823,-0.261188 0.884839,-0.211892 2.504372,0.264583 1.094708,0.322069 2.350076,0.585579 2.789708,0.585579 0.673219,0 0.799327,0.102905 0.799327,0.652252 0,1.444746 1.864916,2.80167 4.900653,3.565745 0.827704,0.208327 1.13167,0.446611 1.367827,1.072263 0.307699,0.815191 1.621758,1.588907 2.698556,1.588907 0.284549,0 0.903267,0.324716 1.374926,0.721591 0.59441,0.500162 1.156875,0.72159 1.832962,0.72159 0.708806,0 0.968097,0.110117 0.948677,0.402889 -0.01471,0.221588 0.35765,0.581482 0.827444,0.799764 0.469792,0.218281 0.856745,0.535082 0.859896,0.704002 0.0031,0.168919 0.571273,0.575797 1.262497,0.904172 0.691224,0.328375 1.7601274,1.053371 2.3753394,1.611102 0.6152116,0.557731 1.2289756,1.014057 1.3639216,1.014057 0.134942,0 0.544928,0.506016 0.911076,1.124479 0.366147,0.618464 1.270429,1.798403 2.009516,2.622089 0.739085,0.823685 1.343792,1.746076 1.343792,2.049758 0,0.303682 0.399945,0.998977 0.888765,1.545099 0.48882,0.546121 1.02805699,1.421926 1.19830299,1.94623 0.170246,0.524304 0.60374,1.229667 0.963319,1.567474 0.422092,0.396536 0.65300207,0.902581 0.65158657,1.427969 -0.00132,0.447577 0.14170824,2.274517 0.31759004,4.059867 0.4146867,4.209426 0.1324768,5.879057 -1.78455861,10.55797 -1.45811099,3.558815 -2.02863199,4.387271 -3.62023299,5.256956 -0.398076,0.217514 -0.798005,0.691245 -0.88873,1.052732 -0.09073,0.36149 -0.658001,1.036908 -1.260605,1.500931 -0.602604,0.464024 -2.1083766,1.757053 -3.3461586,2.873399 -1.2377844,1.116346 -2.9703314,2.393082 -3.8501084,2.83719 -0.879777,0.444111 -3.392231,2.00315 -5.583232,3.464534 -2.191001,1.461384 -4.285089,2.794413 -4.653529,2.962285 -0.36844,0.167873 -0.808447,0.609325 -0.977797,0.981004 -0.285287,0.626136 -0.204819,0.781172 1.095304,2.11033 1.690597,1.72836 3.155841,2.77479 4.57821,3.26963 0.582083,0.20251 1.594114,0.90592 2.248958,1.56313 0.654844,0.65722 2.059744,1.70784 3.121999,2.33473 1.062257,0.62689 2.329441,1.4893 2.815968,1.91648 0.533609,0.46851 1.0492294,0.7135 1.2995354,0.61745 0.25817,-0.0991 0.893644,0.23903 1.6819506,0.89487 1.343922,1.11808 3.230989,2.16966 3.893479,2.16966 0.219228,0 0.792281,0.39369 1.27345,0.87486 0.511691,0.51169 1.396333,1.02086 2.13107599,1.22657 1.140775,0.3194 1.305589,0.30704 1.79345151,-0.13447 0.5254122,-0.47549 0.5513573,-0.469 1.1790495,0.29478 0.6587622,0.80159 1.5362634,2.46287 1.8268447,3.45858 0.1447508,0.496 -0.09512,0.67213 -2.0719177,1.52135 -2.15308901,0.92496 -3.06687501,1.13981 -3.405881,0.80081 z m -66.275449,-10.59106 c 0.398759,-0.20501 1.664399,-0.53674 2.812534,-0.73718 1.148133,-0.20044 3.143594,-0.80753 4.434359,-1.3491 1.290764,-0.54156 2.882625,-1.07488 3.537468,-1.18514 2.584249,-0.43514 14.578965,-5.85478 16.858313,-7.61719 l 0.586436,-0.45344 -1.705737,-1.455204 c -0.938157,-0.800364 -2.067737,-1.581084 -2.510179,-1.734934 -0.442441,-0.153849 -1.006041,-0.570568 -1.252445,-0.926041 -0.538813,-0.77732 -1.136446,-1.271461 -3.756892,-3.106317 -4.546373,-3.183408 -5.533134,-4.802452 -4.758582,-7.807732 0.226444,-0.878613 0.527114,-1.263695 1.44558,-1.851417 0.928952,-0.594428 1.263404,-0.686548 1.68107,-0.46302 0.286769,0.153476 0.98212,0.279045 1.545222,0.279045 0.831345,0 1.195248,0.179615 1.935623,0.955381 0.501489,0.525457 2.042893,1.851303 3.425341,2.946318 1.382448,1.095018 2.989792,2.436262 3.571875,2.980542 0.582083,0.54428 1.369544,1.062104 1.749909,1.150718 0.380368,0.08862 1.18391,0.609407 1.785647,1.157311 2.408885,2.193372 3.07449,2.716228 3.46498,2.721864 0.224288,0.0032 0.705453,0.238712 1.069256,0.523282 0.363802,0.28457 0.819202,0.520047 1.012002,0.523283 0.192802,0.0032 1.204833,-0.548304 2.248958,-1.225646 1.044128,-0.677338 2.493727,-1.497933 3.221331,-1.823542 0.727604,-0.325607 1.611561,-0.902513 1.964349,-1.282012 0.35279,-0.3795 0.844227,-0.689999 1.092083,-0.689999 0.247857,0 0.593926,-0.172638 0.769041,-0.383638 0.175114,-0.211 0.814771,-0.627838 1.421458,-0.926306 0.606687,-0.298469 1.991672,-1.256073 3.077742,-2.128012 1.086069,-0.87194 2.394257,-1.723822 2.907085,-1.89307 0.518586,-0.171149 1.432235,-0.863645 2.058583,-1.560296 0.619395,-0.688914 1.413811,-1.324766 1.765369,-1.413002 0.5954744,-0.149452 1.0570634,-0.741635 4.184964,-5.368943 1.846355,-2.731436 2.405558,-4.941628 2.408767,-9.520412 0.0013,-1.89217 -0.644562,-4.613061 -1.277421,-5.381321 -0.179811,-0.218281 -0.270555,-0.553069 -0.201658,-0.743971 0.0689,-0.190902 -0.303824,-1.042286 -0.828275,-1.891964 -0.52445,-0.849675 -0.955096,-1.765045 -0.956988,-2.034153 -0.0043,-0.606744 -3.462763,-4.250251 -5.000178,-5.267664 -0.62426,-0.413117 -1.23916,-1.025031 -1.366443,-1.359809 -0.162933,-0.428549 -0.443645,-0.608688 -0.948523,-0.608688 -0.394404,0 -0.962898,-0.218275 -1.263319,-0.485057 -0.300421,-0.266781 -1.141532,-0.699415 -1.869136,-0.961409 -0.727604,-0.261995 -1.568715,-0.698563 -1.869136,-0.970152 -0.33198,-0.30012 -0.941803,-0.493799 -1.554784,-0.493799 -0.554712,0 -2.235168,-0.364646 -3.734348,-0.810325 -2.606436,-0.774846 -2.762099,-0.791545 -3.555232,-0.381399 -0.784783,0.405827 -0.893109,0.398108 -2.011622,-0.143354 -1.028774,-0.498021 -1.464328,-0.551352 -3.35665,-0.410997 -1.195961,0.08871 -2.798138,0.1959 -3.560392,0.23821 -1.49039,0.08272 -2.621322,0.715772 -3.15287,1.764842 -0.391797,0.773258 -0.05301,1.829292 1.119513,3.489629 0.478933,0.678185 1.107223,1.696519 1.396204,2.262965 0.288978,0.566445 0.839467,1.172993 1.223309,1.347883 1.189394,0.541924 2.647817,4.38686 2.020072,5.325644 -0.217556,0.325353 -0.418621,0.30752 -1.398656,-0.124042 -2.943392,-1.296127 -6.245569,-3.472572 -7.711014,-5.082278 -0.826844,-0.908241 -1.503352,-1.771444 -1.503352,-1.918229 0,-0.146785 -0.342744,-0.266882 -0.761651,-0.266882 -0.58843,0 -0.832889,-0.171988 -1.074893,-0.756237 -0.172284,-0.41593 -0.666224,-1.017206 -1.097643,-1.336168 l -0.784399,-0.579931 -3.803047,3.058441 c -3.775295,3.036123 -6.014045,5.215047 -7.465211,7.265719 -0.415726,0.58747 -0.948031,1.07067 -1.182901,1.073777 -0.234871,0.0031 -0.744464,0.463692 -1.132428,1.023527 -0.387964,0.559832 -1.012962,1.182486 -1.388888,1.383673 -0.375922,0.201189 -1.21563,1.111517 -1.866016,2.022948 -0.650385,0.911434 -1.691304,2.104483 -2.313151,2.651221 -0.621848,0.54674 -1.494867,1.529852 -1.940042,2.184696 -0.445174,0.654844 -1.465585,1.959464 -2.267582,2.899156 -0.801994,0.939691 -1.706697,2.206154 -2.01045,2.81436 -0.303752,0.608205 -0.779948,1.165365 -1.058213,1.238133 -0.278265,0.07277 -0.800496,0.711306 -1.160513,1.418974 -0.360017,0.707667 -1.615977,2.596356 -2.791022,4.197085 -1.175045,1.600729 -2.515995,3.624792 -2.97989,4.497917 -0.463894,0.873124 -1.346414,2.301874 -1.961155,3.174999 -0.61474,0.873125 -1.328132,2.242344 -1.585315,3.042709 -0.257182,0.800364 -0.672026,1.871927 -0.921875,2.38125 -0.249849,0.509322 -0.527844,1.239236 -0.617765,1.62203 -0.08992,0.382794 -0.389936,0.755203 -0.666697,0.82758 -0.596928,0.156099 -0.548837,1.17522 0.245293,5.19813 0.69622,3.52692 1.461366,4.67171 3.64775,5.45764 0.92171,0.33132 1.941415,0.8519 2.266011,1.15685 0.366697,0.34449 0.940272,0.55444 1.514739,0.55444 0.508511,0 1.155681,0.18286 1.438156,0.40636 0.438651,0.34707 1.2278,0.38136 5.408382,0.235 3.396427,-0.11891 5.116729,-0.28547 5.619805,-0.54411 z m 124.376244,0.23347 c -0.353136,-0.32742 -0.903821,-0.59792 -1.223745,-0.60112 -1.052446,-0.0105 -2.679216,-0.95181 -3.851868,-2.2288 -1.857848,-2.02316 -4.455466,-8.36177 -3.834323,-9.356376 0.177147,-0.283657 0.197062,-0.687871 0.05307,-1.077121 -0.297088,-0.803111 -0.07154,-8.150005 0.313706,-10.218348 0.223797,-1.201552 0.218037,-1.917515 -0.02368,-2.94494 -0.397957,-1.691436 -0.279855,-2.355595 0.877181,-4.932918 l 0.923457,-2.057024 -0.129632,-5.219017 -0.12963,-5.219017 0.757941,-0.710729 c 0.542025,-0.508262 1.09656,-0.734381 1.946592,-0.79375 0.989441,-0.06911 1.245574,-0.202343 1.528302,-0.795002 0.186812,-0.391589 0.60442,-0.795523 0.928019,-0.897628 0.323601,-0.102108 1.600395,-0.759336 2.837322,-1.460505 1.467181,-0.831694 2.938762,-1.427734 4.233334,-1.714643 1.091406,-0.241885 2.244955,-0.560393 2.563439,-0.7078 0.332518,-0.1539 1.236618,-0.193619 2.123456,-0.09328 1.029959,0.116528 2.235591,0.03178 3.619481,-0.25441 2.105578,-0.435443 6.954674,-0.422627 16.655759,0.04402 l 3.398597,0.163483 0.371715,0.889646 c 0.778317,1.86277 0.378783,2.605095 -1.744948,3.242087 -0.509326,0.152765 -3.545419,0.330981 -6.746878,0.396034 -4.690136,0.0953 -6.021104,0.205102 -6.851824,0.565245 -0.567045,0.245832 -1.876732,0.483539 -2.910417,0.528241 -1.174414,0.05078 -2.574181,0.334309 -3.731509,0.755822 -1.018645,0.371001 -3.384899,1.104556 -5.258339,1.630119 -1.873441,0.525565 -3.837972,1.185902 -4.365625,1.467413 -1.89311,1.01001 -1.938875,1.090012 -2.08448,3.643717 -0.169244,2.96825 0.176101,4.183177 1.256527,4.420476 0.431909,0.09486 1.028917,0.02548 1.374421,-0.159752 0.343783,-0.184304 1.88323,-0.364956 3.521247,-0.413219 1.600729,-0.04716 3.684322,-0.203263 4.630208,-0.346892 0.945885,-0.143627 2.871631,-0.381842 4.279434,-0.529365 1.407803,-0.147524 2.842945,-0.375936 3.189203,-0.507582 0.346255,-0.131649 1.456605,-0.176972 2.467438,-0.100719 3.084981,0.232714 3.780523,1.531686 2.249477,4.201046 -0.771316,1.344776 -0.779791,1.350171 -2.384687,1.517914 -0.885841,0.09259 -3.252187,0.704848 -5.258544,1.360573 -2.006359,0.655724 -4.236116,1.270891 -4.955018,1.367041 -0.718902,0.09615 -1.380043,0.285908 -1.469205,0.421693 -0.08916,0.135781 -0.907391,0.298738 -1.818291,0.362122 -0.910899,0.06339 -2.147636,0.228729 -2.748306,0.367426 -0.60067,0.1387 -1.721392,0.255091 -2.490497,0.258647 -2.457968,0.01138 -3.493632,0.986554 -3.502734,3.298184 -0.0035,0.881692 -0.116414,2.078019 -0.250981,2.658504 -0.194172,0.837592 -0.16456,1.100257 0.143471,1.272641 0.312893,0.175104 0.355272,0.611663 0.218593,2.251866 -0.290301,3.483782 1.003938,7.065987 3.051445,8.445807 1.589146,1.07092 4.560805,0.71778 5.389745,-0.6405 0.116372,-0.19069 0.655487,-0.3467 1.198033,-0.3467 0.815867,0 1.328312,-0.27984 2.963416,-1.61827 1.087331,-0.89005 2.230363,-1.735994 2.540068,-1.879879 0.309708,-0.143883 0.836049,-0.844352 1.169646,-1.556594 0.333595,-0.712245 0.824342,-1.492097 1.090541,-1.733005 0.288687,-0.261258 0.484003,-0.802098 0.484003,-1.340229 0,-0.738954 0.248682,-1.144434 1.374275,-2.240795 1.259197,-1.226498 1.484667,-1.341374 2.692648,-1.371886 l 1.318374,-0.0333 0.776473,1.712982 0.776472,1.712978 -1.112639,2.255772 c -2.0722,4.201186 -4.30512,7.696426 -5.647639,8.840366 -0.702485,0.59857 -1.774047,1.50975 -2.38125,2.02483 -0.607203,0.51508 -2.748145,1.74695 -4.75765,2.73748 l -3.653642,1.80098 -2.663238,0.0406 c -2.425803,0.037 -2.720477,-0.0124 -3.305299,-0.55467 z m 38.925667,0.25614 c -0.355696,-0.18655 -0.646719,-0.42627 -0.646719,-0.5327 0,-0.10644 -0.621535,-0.34116 -1.381188,-0.52161 -2.677105,-0.63593 -4.594553,-2.96665 -6.306333,-7.66555 -1.079955,-2.96452 -1.22369,-3.669169 -0.778688,-3.817503 0.176078,-0.05869 0.177388,-0.393972 0.0039,-0.998884 -0.329004,-1.147167 -0.129537,-7.759297 0.305835,-10.1381 0.25673,-1.402739 0.25858,-2.045607 0.0086,-2.980359 -0.480234,-1.795537 -0.40995,-2.239328 0.744935,-4.703789 l 1.063689,-2.269881 -0.179485,-5.18309 -0.179486,-5.18309 0.752785,-0.785735 c 0.625255,-0.65264 0.963041,-0.785739 1.994088,-0.785739 1.103172,0 1.275564,-0.08097 1.549048,-0.727604 0.195641,-0.462571 0.761492,-0.941779 1.553453,-1.315582 0.685147,-0.323387 2.03658,-1.009558 3.003183,-1.52482 0.966602,-0.515261 2.573946,-1.125382 3.571879,-1.355823 0.99793,-0.230442 2.07499,-0.542745 2.39348,-0.694008 0.3429,-0.162856 1.21932,-0.202586 2.14892,-0.09741 1.05952,0.119873 2.24747,0.03749 3.65427,-0.253417 2.11583,-0.437526 6.55636,-0.427014 16.69009,0.03952 l 3.49319,0.160816 0.42408,1.276784 c 0.86076,2.591522 -0.52657,3.110243 -8.73337,3.265395 -4.37323,0.08268 -5.80975,0.200149 -6.74687,0.551722 -0.65484,0.245671 -1.905,0.472358 -2.77813,0.503745 -0.90744,0.03262 -2.7776,0.430718 -4.36562,0.929304 -1.52797,0.479732 -4.27656,1.343459 -6.10799,1.919394 -2.114939,0.665093 -3.638884,1.308793 -4.17684,1.76426 -0.842264,0.713113 -0.847032,0.731184 -0.855747,3.243495 -0.01146,3.299656 0.144357,3.881287 1.095661,4.090228 0.423296,0.09297 1.021122,0.02106 1.364289,-0.164115 0.352018,-0.18995 1.900047,-0.367176 3.653547,-0.418275 1.67348,-0.04877 4.24861,-0.265562 5.72249,-0.481761 1.47389,-0.216199 3.09207,-0.393089 3.59598,-0.393089 0.50389,0 1.48316,-0.170638 2.17614,-0.379193 1.60892,-0.484214 4.70538,-0.267832 5.5118,0.38517 0.81957,0.663639 0.72963,2.002835 -0.24057,3.582342 -0.79106,1.287854 -0.8265,1.309468 -2.48658,1.516666 -0.92624,0.115607 -3.29761,0.735967 -5.26969,1.378579 -1.97209,0.642612 -4.1214,1.248468 -4.77624,1.346346 -0.65485,0.09788 -1.37888,0.340982 -1.60897,0.540229 -0.23009,0.199244 -0.48295,0.297661 -0.56192,0.218699 -0.079,-0.07896 -1.37019,0.03984 -2.8694,0.264004 -1.499212,0.224165 -3.233842,0.407575 -3.854737,0.407575 -0.662403,0 -1.50844,0.223935 -2.047372,0.541914 -0.909114,0.53639 -0.920239,0.565383 -1.091515,2.844271 -0.09517,1.266295 -0.274595,2.620639 -0.398721,3.009651 -0.162052,0.507875 -0.127678,0.744902 0.121914,0.840682 0.251447,0.09649 0.37614,0.998635 0.450789,3.261452 0.0913,2.767719 0.192059,3.322754 0.874618,4.818034 1.034605,2.26652 2.291,3.20483 4.291271,3.20483 1.450063,0 2.617003,-0.42254 3.239983,-1.17318 0.18912,-0.22788 0.73116,-0.41432 1.20454,-0.41432 0.67053,0 1.36805,-0.4092 3.15704,-1.85209 1.26299,-1.01864 2.37915,-1.852361 2.48035,-1.852708 0.1012,-2.64e-4 0.52134,-0.646255 0.93365,-1.435359 0.41231,-0.789101 0.91833,-1.499457 1.12448,-1.578568 0.22842,-0.08765 0.37483,-0.520136 0.37483,-1.107231 0,-0.787913 0.24329,-1.229592 1.33568,-2.424829 1.29164,-1.413267 1.38097,-1.461439 2.71026,-1.461439 1.5213,0 1.8678,0.32821 2.55967,2.424612 0.33053,1.001504 0.30278,1.094121 -1.25323,4.182711 -2.66308,5.286061 -4.3218,7.600871 -6.41071,8.946361 -0.50932,0.32806 -1.27574,0.96715 -1.70315,1.42021 -0.42741,0.45306 -0.93451,0.82374 -1.12691,0.82374 -0.19239,0 -1.74769,0.7237 -3.45622,1.6082 l -3.10643,1.6082 -2.594431,0.0455 c -1.680347,0.0294 -2.822278,-0.074 -3.241145,-0.29373 z m 44.993906,-3.8791 c -0.58208,-0.35277 -1.83824,-1.5125 -2.79146,-2.57719 -1.71256,-1.9128 -1.74037,-1.96847 -2.34213,-4.68886 -0.33494,-1.514186 -0.82836,-3.264852 -1.09648,-3.890361 -0.318,-0.741865 -0.43533,-1.458814 -0.33744,-2.062019 0.0825,-0.508601 0.008,-1.896804 -0.1658,-3.084891 -0.24413,-1.669643 -0.24454,-2.582968 -0.002,-4.022106 0.24525,-1.453981 0.24244,-2.280616 -0.0128,-3.77277 -0.26357,-1.540836 -0.26073,-2.109481 0.0147,-2.936759 0.18784,-0.564263 0.35527,-1.680776 0.37208,-2.481141 0.0168,-0.800364 0.13091,-2.248878 0.25356,-3.218923 0.28688,-2.268352 0.0827,-3.131077 -0.74085,-3.131077 -0.34141,0 -0.92347,0.238125 -1.29346,0.529167 -0.37,0.291042 -0.85635,0.529167 -1.08077,0.529167 -0.22442,0 -1.09861,0.416412 -1.94264,0.925362 -0.84403,0.508949 -1.61321,0.925668 -1.70928,0.926041 -0.0961,2.65e-4 -0.77719,-0.47557 -1.51357,-1.057653 -0.73639,-0.582084 -1.52099,-1.058334 -1.74355,-1.058334 -0.31675,0 -0.40466,-0.334129 -0.40466,-1.537999 0,-1.332735 0.0971,-1.630867 0.7276,-2.233853 1.04976,-1.003948 5.12407,-3.012178 6.54275,-3.224924 0.89217,-0.133787 1.64562,-0.526195 2.85762,-1.488289 0.90529,-0.71863 2.09296,-1.61993 2.63926,-2.002893 l 0.99327,-0.696296 1.47688,0.464537 c 1.69155,0.532056 3.20834,0.426257 4.28572,-0.29894 0.48072,-0.323583 1.07812,-0.455448 1.81018,-0.399563 0.7195,0.05493 1.67537,-0.149704 2.79889,-0.599183 0.93842,-0.375428 2.1136,-0.682993 2.6115,-0.683477 0.49791,-5.29e-4 2.09591,-0.240398 3.55112,-0.533146 5.83132,-1.173094 18.7013,-1.593197 20.8829,-0.681659 0.55541,0.232066 1.34072,0.421936 1.74514,0.421936 0.5748,0 1.1453,0.43901 2.61352,2.01118 1.80645,1.934313 1.87823,2.061458 1.87823,3.326786 0,1.733523 -0.97171,4.55831 -2.84298,8.264599 l -1.52265,3.015811 -4.23333,3.803483 c -5.14921,4.626377 -9.51026,8.394887 -11.65771,10.073796 -1.39187,1.088188 -1.64899,1.431046 -1.94792,2.597366 -0.32546,1.269895 -0.31368,1.365189 0.21448,1.73513 0.30737,0.215291 0.55886,0.547806 0.55886,0.738923 0,0.191119 0.54279,0.499462 1.20621,0.685207 1.47605,0.413269 4.51871,0.244578 11.75837,-0.651904 2.83766,-0.351385 6.17141,-0.719987 7.40834,-0.819113 1.23692,-0.09913 2.76788,-0.354565 3.40209,-0.56764 0.92088,-0.309374 1.3055,-0.324302 1.90952,-0.07412 0.57044,0.236291 1.06738,0.240371 2.02184,0.01659 0.69604,-0.163182 2.31291,-0.399897 3.5931,-0.526031 1.28016,-0.126135 2.38117,-0.282938 2.44668,-0.348449 0.0655,-0.06551 -0.009,-0.813024 -0.16595,-1.661136 -0.22132,-1.197223 -0.19394,-2.257351 0.1225,-4.741153 0.22413,-1.759521 0.48615,-3.973036 0.58222,-4.918922 0.0961,-0.945885 0.37489,-2.493697 0.61957,-3.439583 0.34653,-1.339683 0.40466,-2.274469 0.26289,-4.229412 -0.10009,-1.380292 -0.0765,-2.787028 0.0524,-3.126079 0.36811,-0.968218 0.27823,-1.607952 -0.2948,-2.098608 -0.29104,-0.249198 -0.52917,-0.697791 -0.52917,-0.996871 0,-0.299082 -0.19285,-0.819145 -0.4286,-1.155692 -0.5479,-0.782238 -0.36279,-2.727507 0.3524,-3.703251 0.28115,-0.383559 1.09792,-1.083823 1.81504,-1.556147 0.71713,-0.472323 1.47974,-1.008105 1.69469,-1.190625 0.50292,-0.427053 2.90687,-0.274653 3.46281,0.219525 0.22773,0.202427 0.79327,0.500245 1.25677,0.661821 0.74361,0.25922 0.84273,0.409559 0.84273,1.278199 0,0.541436 0.2001,1.631117 0.44471,2.421514 0.24458,0.790395 0.40195,1.556147 0.3497,1.701668 -0.0523,0.145521 -0.11108,1.693333 -0.13071,3.439583 -0.0257,2.291078 -0.14978,3.39598 -0.44548,3.96875 -0.23622,0.457499 -0.4845,1.899518 -0.5861,3.404018 -0.0991,1.467274 -0.41291,3.312705 -0.71668,4.214434 -0.44357,1.316718 -0.53734,2.247599 -0.52326,5.19494 0.0156,3.284855 0.25437,5.368232 0.66172,5.775574 0.0872,0.08718 1.09326,0.0067 2.23575,-0.178837 1.77184,-0.287742 2.18959,-0.280448 2.84121,0.04961 0.42015,0.212826 1.35987,0.526884 2.08827,0.697908 1.30921,0.307401 1.36964,0.292481 5.29167,-1.306727 2.18202,-0.889725 4.97935,-2.101056 6.21628,-2.691847 2.02679,-0.968057 2.49126,-1.084471 4.70191,-1.178459 2.8212,-0.119947 3.21175,0.154855 2.18802,1.539525 -0.32432,0.438664 -0.53337,1.012841 -0.46455,1.275953 0.0838,0.320503 -0.0839,0.573614 -0.50821,0.766935 -0.34833,0.158702 -0.76491,0.577392 -0.92575,0.93042 -0.19344,0.424524 -0.59418,0.698471 -1.18351,0.809033 -0.49009,0.09194 -1.01066,0.390628 -1.15684,0.663755 -0.14616,0.273124 -0.71316,0.640238 -1.25997,0.815808 -1.66278,0.533868 -8.08284,3.982315 -8.97972,4.823319 -0.62744,0.588336 -1.01783,0.755639 -1.53334,0.657098 -0.40037,-0.07654 -1.3271,0.129181 -2.20094,0.488571 -1.17851,0.48469 -2.01208,0.62216 -3.80246,0.62706 -1.58848,0.004 -2.32674,0.1074 -2.40273,0.33537 -0.1955,0.58645 -3.33941,0.26318 -4.60288,-0.47327 -0.98345,-0.57324 -2.10701,-1.669767 -2.66837,-2.604169 -0.35764,-0.595254 -10.63615,0.602826 -14.60331,1.702179 -1.0124,0.28055 -2.17527,0.44668 -2.58413,0.36917 -0.40889,-0.0775 -1.27921,-0.0211 -1.93405,0.12539 -4.66329,1.04307 -5.92913,1.37045 -6.21441,1.60719 -0.34205,0.28388 -1.91513,0.088 -2.41339,-0.30049 -0.1723,-0.13434 -0.77301,-0.054 -1.45521,0.19454 -0.63897,0.23283 -2.2144,0.48873 -3.50096,0.56867 -5.43034,0.33741 -11.38475,-1.88231 -12.53671,-4.673512 -0.21469,-0.520205 -0.56765,-1.145461 -0.78434,-1.389457 -0.34941,-0.393438 -0.34097,-0.766654 0.0746,-3.298978 l 0.46857,-2.855352 1.83921,-1.857541 c 1.01157,-1.021649 2.02133,-2.1355 2.24393,-2.475225 0.2226,-0.339725 1.06988,-1.041815 1.88286,-1.5602 0.81297,-0.518385 2.37111,-1.679443 3.46251,-2.58013 1.09141,-0.900686 2.52016,-2.008986 3.175,-2.462887 1.28389,-0.889926 3.54963,-2.937319 3.72732,-3.368143 0.06,-0.145521 0.76398,-0.762682 1.56435,-1.371467 2.2211,-1.689442 4.35232,-4.777447 4.54721,-6.588625 0.0743,-0.690243 -0.0551,-0.839579 -1.23333,-1.423244 -1.17099,-0.580086 -1.76988,-0.669052 -5.42396,-0.805733 -2.68354,-0.100381 -4.74974,-0.04361 -5.95971,0.163753 -1.01865,0.174572 -3.11459,0.442439 -4.65765,0.595262 -1.54306,0.152823 -3.32899,0.476512 -3.96875,0.719304 -0.63975,0.242795 -2.11569,0.524097 -3.27985,0.625118 -1.71182,0.148542 -2.58921,0.404752 -4.58727,1.339538 l -2.47061,1.155866 0.11849,0.943031 c 0.0677,0.538581 -0.10455,1.623883 -0.40156,2.53053 -0.41182,1.257094 -0.56561,2.771453 -0.73889,7.276042 -0.12036,3.128698 -0.32069,6.103533 -0.44518,6.610742 -0.25791,1.05075 0.6233,6.559864 1.54384,9.651809 0.7891,2.650449 1.97981,4.904119 2.59105,4.904119 0.97698,0 1.09734,1.72412 0.26439,3.78741 -0.30463,0.75458 -0.65926,1.63985 -0.78808,1.96727 -0.32507,0.82625 -1.88049,0.80209 -3.28827,-0.0511 z m 124.98171,-5.44198 c -0.5878,-0.59372 -1.69318,-2.32562 -2.50891,-3.931039 -1.39888,-2.753018 -1.46953,-2.992347 -1.73731,-5.884015 -0.15351,-1.65785 -0.32557,-5.693177 -0.38235,-8.967396 -0.0774,-4.460983 -0.20233,-6.203156 -0.4985,-6.950667 -0.21741,-0.548648 -0.39526,-1.237446 -0.39526,-1.530663 0,-0.817485 -0.7888,-1.83761 -1.41949,-1.83579 -0.3107,7.94e-4 -0.92207,0.188256 -1.35864,0.416354 -0.50662,0.264705 -1.28143,0.383749 -2.14193,0.329099 -0.7874,-0.05001 -1.50807,0.04699 -1.73257,0.233206 -0.48665,0.403657 -5.075,0.973667 -6.13349,0.761963 -0.94478,-0.188949 -2.63274,-1.410023 -2.42158,-1.751727 0.0814,-0.131762 -0.0354,-0.594338 -0.25961,-1.027948 -0.52273,-1.010843 -0.51726,-1.71727 0.0167,-2.160453 0.23344,-0.193738 0.51835,-0.599276 0.63315,-0.901194 0.28022,-0.73704 2.16657,-1.302488 6.61532,-1.982989 1.96454,-0.3005 4.18553,-0.721847 4.93552,-0.936321 0.75001,-0.214473 2.24708,-0.389953 3.32684,-0.389953 1.07974,0 3.20455,-0.187108 4.72178,-0.415795 1.56057,-0.23522 3.33309,-0.345549 4.08149,-0.254045 0.87974,0.107558 3.05136,-0.10196 6.48229,-0.62542 2.83766,-0.432943 6.46906,-0.919445 8.06979,-1.081122 1.79134,-0.180924 3.01358,-0.428466 3.17873,-0.643781 0.1483,-0.193373 1.09495,-0.430567 2.11667,-0.53036 1.01658,-0.09929 2.5032,-0.243544 3.30356,-0.320551 1.00682,-0.09687 1.57898,-0.298061 1.85693,-0.652933 0.30903,-0.394552 0.95011,-0.574233 2.77812,-0.778621 2.77035,-0.309753 3.99119,-0.656633 4.1968,-1.192461 0.38449,-1.001977 2.07147,0.191836 2.63527,1.864881 0.30184,0.895678 0.48279,1.070911 1.17732,1.140174 0.98279,0.09801 0.92218,0.453602 -0.34727,2.036667 -1.10643,1.379818 -1.97842,3.021264 -1.97842,3.724288 0,0.436804 -0.16957,0.563788 -0.77584,0.581025 -0.42672,0.01214 -1.26375,0.298143 -1.8601,0.635577 l -1.08423,0.613518 -0.48305,-0.63097 -0.48305,-0.630973 -3.14698,0.449477 c -1.73083,0.247213 -3.99034,0.662736 -5.02113,0.923388 -1.03079,0.260649 -2.84422,0.497289 -4.02982,0.525864 -1.18562,0.02858 -2.78302,0.240147 -3.54978,0.47016 -0.84027,0.252055 -2.62192,0.444621 -4.48453,0.484703 -3.10409,0.0668 -5.31011,0.427408 -6.59858,1.078651 -0.41587,0.210209 -1.0773,0.287988 -1.65364,0.194461 -1.09752,-0.178105 -1.25032,0.175641 -0.52385,1.212821 0.35049,0.500377 0.45865,1.491292 0.54795,5.019807 0.23723,9.373118 0.38201,11.798612 0.72835,12.201569 0.18761,0.218282 0.42042,0.657471 0.51739,0.975977 0.1697,0.55753 0.21646,0.564922 1.25518,0.198437 1.28204,-0.452337 2.60244,-0.488701 3.46554,-0.09544 0.58288,0.26557 0.62812,0.440269 0.65683,2.535941 l 0.0308,2.250721 -1.20441,1.763538 c -0.80639,1.18078 -1.44137,1.82769 -1.92151,1.95768 -0.39441,0.10678 -1.5358,0.73186 -2.5364,1.38906 -2.3803,1.56339 -3.21683,1.58739 -4.65616,0.13363 z M 10.807275,101.84275 c -0.582084,-0.2818 -1.2531832,-0.51548 -1.4913347,-0.51929 -0.2381514,-0.004 -1.1099588,-0.83438 -1.9373505,-1.845702 C 5.9946099,97.786121 5.8450278,97.47165 5.5091207,95.547529 5.3083019,94.397221 4.9462646,92.668873 4.7045889,91.706758 4.2750458,89.996748 4.2812979,89.857709 4.9828433,85.516675 5.818199,80.347656 6.5854616,77.715936 7.8874788,75.553737 8.4233447,74.66385 8.824117,73.64672 8.8257521,73.172487 c 0.00157,-0.455314 0.4765331,-1.839873 1.0554811,-3.0768 0.5789478,-1.236927 1.0539148,-2.620222 1.0554808,-3.073987 0.0027,-0.783776 0.08392,-0.847778 1.624007,-1.279904 2.90917,-0.816271 4.186148,-0.05523 3.83862,2.287699 -0.269108,1.814237 -2.589019,8.986274 -3.235857,10.003692 -0.694817,1.092888 -1.700495,6.606275 -1.68916,9.260416 0.01109,2.59357 0.771321,5.55625 1.425773,5.55625 0.169857,0 0.761833,0.230955 1.315505,0.513231 1.018204,0.51911 2.280214,0.387083 2.280214,-0.238549 0,-0.147169 0.432737,-0.448389 0.961639,-0.669379 1.442553,-0.602737 4.495713,-3.279484 4.873231,-4.272428 0.130598,-0.343498 0.3937,-0.624541 0.584673,-0.624541 0.837592,0 2.833622,-2.599624 4.367745,-5.688542 2.525696,-5.085418 3.586379,-7.953878 3.391588,-9.172038 -0.148985,-0.931696 -0.02463,-1.241576 1.313497,-3.273523 1.891461,-2.872155 2.462154,-3.196709 4.847217,-2.756598 2.479085,0.457459 2.677255,0.598638 2.689661,1.916155 0.0058,0.613344 0.189905,2.00814 0.409173,3.099546 0.472274,2.350735 1.004986,9.782712 0.92928,12.964583 -0.06715,2.822199 0.746027,6.523167 1.584153,7.209896 0.343885,0.281765 1.011005,0.46302 1.704179,0.46302 1.022384,0 1.229455,0.114142 2.02121,1.11411 0.485172,0.61276 0.840801,1.295228 0.790287,1.516597 -0.210548,0.922714 -1.253996,1.936062 -3.296439,3.201355 -2.09814,1.299795 -2.21484,1.337683 -3.623177,1.176301 -2.803544,-0.32126 -4.627859,-1.736283 -5.875856,-4.557586 -0.301691,-0.682027 -0.859692,-2.78262 -1.240002,-4.667988 -0.380307,-1.885365 -0.825637,-3.472661 -0.989623,-3.527324 -0.163987,-0.05466 -0.842442,0.70948 -1.507684,1.698096 -1.634844,2.429547 -2.020802,2.860654 -3.002647,3.353882 -0.537493,0.27001 -0.964116,0.761016 -1.180031,1.358122 -0.1914,0.529304 -0.687293,1.145072 -1.142524,1.418712 -0.442389,0.265916 -2.17356,1.704025 -3.84705,3.195796 -3.3327,2.970811 -4.771864,3.932961 -6.441906,4.306711 -2.103723,0.47081 -2.93049,0.45746 -4.009135,-0.0647 z M 235.8354,98.002346 c -0.3638,-0.19853 -0.85622,-0.418079 -1.09429,-0.487881 -0.23804,-0.0698 -1.16078,-1.215231 -2.05052,-2.545395 -1.33032,-1.988875 -1.61769,-2.612977 -1.61769,-3.513428 0,-0.602224 -0.14258,-2.377318 -0.31686,-3.94466 -0.30049,-2.702298 -0.27702,-3.099829 0.45373,-7.685106 0.75967,-4.766627 0.83923,-6.328783 0.62116,-12.196439 -0.0845,-2.274877 -0.0351,-2.653866 0.39682,-3.042708 0.27136,-0.244293 0.59339,-0.705652 0.71565,-1.025248 0.46463,-1.214765 3.07679,-1.037301 4.52718,0.307568 1.49439,1.385692 1.73104,5.845074 0.76824,14.477037 -0.66026,5.919602 -0.69604,8.97414 -0.1307,11.155828 0.51919,2.003655 0.59349,2.126501 1.05476,1.743686 0.44053,-0.36562 1.17044,-0.145378 1.17044,0.353173 0,0.194168 0.46736,1.319454 1.03857,2.500638 l 1.03854,2.14761 -0.84497,0.977503 c -0.82688,0.95654 -0.89027,0.979231 -2.9568,1.058145 -1.42116,0.05427 -2.32812,-0.03741 -2.77326,-0.280323 z"
       id="path847" />
  </g>
</svg>
